<?xml version="1.0" standalone="no"?><!DOCTYPE svg PUBLIC "-//W3C//DTD SVG 1.1//EN" "http://www.w3.org/Graphics/SVG/1.1/DTD/svg11.dtd"><svg t="1612714510595" class="icon" viewBox="0 0 1024 1024" version="1.1" xmlns="http://www.w3.org/2000/svg" p-id="7412" xmlns:xlink="http://www.w3.org/1999/xlink" width="200" height="200"><defs><style type="text/css"></style></defs><path d="M895.99328 192.01456h-114.87799l137.277598-137.277598A31.99944 31.99944 0 0 0 873.273678 9.297757L703.99664 178.894789l-105.278158-105.598152A31.99944 31.99944 0 0 0 553.599272 118.415848L626.87799 192.01456H128.00672a95.99832 95.99832 0 0 0-95.99832 95.99832v639.9888a95.99832 95.99832 0 0 0 95.99832 95.99832h767.98656a95.99832 95.99832 0 0 0 95.99832-95.99832V288.01288a95.99832 95.99832 0 0 0-95.99832-95.99832z m31.99944 735.98712a31.99944 31.99944 0 0 1-31.99944 31.99944H128.00672a31.99944 31.99944 0 0 1-31.99944-31.99944V288.01288a31.99944 31.99944 0 0 1 31.99944-31.99944h767.98656a31.99944 31.99944 0 0 1 31.99944 31.99944z" p-id="7413"></path><path d="M703.99664 320.01232H192.0056a31.99944 31.99944 0 0 0-31.99944 31.99944v511.99104a31.99944 31.99944 0 0 0 31.99944 31.99944h511.99104a31.99944 31.99944 0 0 0 31.99944-31.99944V352.01176a31.99944 31.99944 0 0 0-31.99944-31.99944z m-31.99944 511.99104H224.00504V384.0112h447.99216z" p-id="7414"></path><path d="M831.9944 640.00672m-47.99916 0a47.99916 47.99916 0 1 0 95.99832 0 47.99916 47.99916 0 1 0-95.99832 0Z" p-id="7415"></path><path d="M831.9944 832.00336m-47.99916 0a47.99916 47.99916 0 1 0 95.99832 0 47.99916 47.99916 0 1 0-95.99832 0Z" p-id="7416"></path></svg>