<?xml version="1.0" standalone="no"?><!DOCTYPE svg PUBLIC "-//W3C//DTD SVG 1.1//EN" "http://www.w3.org/Graphics/SVG/1.1/DTD/svg11.dtd"><svg t="1612714500006" class="icon" viewBox="0 0 1024 1024" version="1.1" xmlns="http://www.w3.org/2000/svg" p-id="7110" xmlns:xlink="http://www.w3.org/1999/xlink" width="200" height="200"><defs><style type="text/css"></style></defs><path d="M896 64H128a96 96 0 0 0-96 96v512a96 96 0 0 0 96 96h352v128H288a32 32 0 0 0 0 64h448a32 32 0 0 0 0-64h-192v-128h352a96 96 0 0 0 96-96V160a96 96 0 0 0-96-96z m32 608a32 32 0 0 1-32 32H128a32 32 0 0 1-32-32V160a32 32 0 0 1 32-32h768a32 32 0 0 1 32 32z" p-id="7111"></path><path d="M768 256H192a32 32 0 0 0 0 64h576a32 32 0 0 0 0-64zM512 384H192a32 32 0 0 0 0 64h320a32 32 0 0 0 0-64z" p-id="7112"></path></svg>