<?xml version="1.0" standalone="no"?><!DOCTYPE svg PUBLIC "-//W3C//DTD SVG 1.1//EN" "http://www.w3.org/Graphics/SVG/1.1/DTD/svg11.dtd"><svg t="1612714505746" class="icon" viewBox="0 0 1024 1024" version="1.1" xmlns="http://www.w3.org/2000/svg" p-id="7261" xmlns:xlink="http://www.w3.org/1999/xlink" width="200" height="200"><defs><style type="text/css"></style></defs><path d="M544 96V64a32 32 0 0 0-64 0v32A448 448 0 0 0 64 520.64a32 32 0 0 0 53.44 25.6 111.04 111.04 0 0 1 164.48 17.6 32 32 0 0 0 24.96 12.16h40.96a32 32 0 0 0 20.48-7.36A224 224 0 0 1 480 519.68v251.52a29.12 29.12 0 0 0 29.12 29.12h5.76a29.12 29.12 0 0 0 29.12-29.12v-251.52a224 224 0 0 1 111.68 48.96 32 32 0 0 0 20.48 7.36h40.96a32 32 0 0 0 24.96-12.16 111.04 111.04 0 0 1 164.48-17.6 32 32 0 0 0 53.44-25.6A448 448 0 0 0 544 96z m160 416h-15.04a288 288 0 0 0-352 0h-15.04a176.96 176.96 0 0 0-185.28-49.92 384 384 0 0 1 751.04 0A176.96 176.96 0 0 0 702.4 512z" p-id="7262"></path><path d="M918.72 713.28a32 32 0 0 0-45.12 0L754.88 832H128a32 32 0 0 0 0 64h80.64l-41.6 41.28a32 32 0 0 0 45.12 45.12L299.2 896h461.12l86.72 86.72a32 32 0 0 0 45.12-45.12L850.88 896H896a32 32 0 0 0 0-64h-50.88l73.28-73.28a32 32 0 0 0 0.32-45.44z" p-id="7263"></path></svg>