<?xml version="1.0" standalone="no"?><!DOCTYPE svg PUBLIC "-//W3C//DTD SVG 1.1//EN" "http://www.w3.org/Graphics/SVG/1.1/DTD/svg11.dtd"><svg t="1612714516031" class="icon" viewBox="0 0 1024 1024" version="1.1" xmlns="http://www.w3.org/2000/svg" p-id="7565" xmlns:xlink="http://www.w3.org/1999/xlink" width="200" height="200"><defs><style type="text/css"></style></defs><path d="M895.976001 160.053997C799.982001 160.053997 598.07462 48.060996 528.95894 4.863696a31.998 31.998 0 0 0-33.91788 0C425.92538 48.060996 224.017999 160.053997 128.023999 160.053997a31.998 31.998 0 0 0-31.998001 31.998v351.978001c0 246.704581 302.701081 479.970002 415.974002 479.970002s415.974002-233.265421 415.974002-479.970002V192.051997a31.998 31.998 0 0 0-31.998001-31.998z m-31.998 383.976001c0 209.586901-275.502781 415.974002-351.978001 415.974002S160.021999 753.616899 160.021999 544.029998V221.490157c119.35254-17.27892 296.301481-118.71258 351.978001-151.990501 55.67652 31.998 232.625461 134.711581 351.978001 151.990501z" p-id="7566"></path><path d="M416.006 256.047997l-63.996001 319.980001h127.992001l-31.998 223.986001 255.984001-351.978001h-159.990001l95.994-191.988001h-223.986z" p-id="7567"></path></svg>