<?xml version="1.0" standalone="no"?><!DOCTYPE svg PUBLIC "-//W3C//DTD SVG 1.1//EN" "http://www.w3.org/Graphics/SVG/1.1/DTD/svg11.dtd"><svg t="1612714537919" class="icon" viewBox="0 0 1024 1024" version="1.1" xmlns="http://www.w3.org/2000/svg" p-id="8018" xmlns:xlink="http://www.w3.org/1999/xlink" width="200" height="200"><defs><style type="text/css"></style></defs><path d="M986.56 229.76A320 320 0 0 0 917.12 128C753.28-32 444.16 11.2 227.84 221.76 103.36 343.04 32 496.32 32 642.24A343.04 343.04 0 0 0 132.48 896a362.56 362.56 0 0 0 257.92 96 636.48 636.48 0 0 0 431.04-189.76 686.08 686.08 0 0 0 136-184.64 109.76 109.76 0 0 0-2.56-101.12A77.12 77.12 0 0 0 886.72 480c-40.32 0-66.56-4.48-66.56-64 0-78.08 86.72-96 99.52-96h6.08a66.24 66.24 0 0 0 55.68-30.08 64 64 0 0 0 5.12-60.16zM919.68 256c-55.68 0-163.84 48-163.84 160 0 85.12 43.84 128 130.56 128 9.28 0 12.16 3.2 13.76 6.08a46.72 46.72 0 0 1 0 38.72 621.76 621.76 0 0 1-123.52 167.36c-192 186.56-460.8 228.16-599.68 92.8A280.64 280.64 0 0 1 96 642.24c0-128 65.92-267.2 176.64-374.72A573.44 573.44 0 0 1 658.56 96a299.84 299.84 0 0 1 213.76 79.68A215.68 215.68 0 0 1 925.76 256z" p-id="8019"></path><path d="M416 384m-96 0a96 96 0 1 0 192 0 96 96 0 1 0-192 0Z" p-id="8020"></path><path d="M256 576m-64 0a64 64 0 1 0 128 0 64 64 0 1 0-128 0Z" p-id="8021"></path><path d="M256 736.32m-32 0a32 32 0 1 0 64 0 32 32 0 1 0-64 0Z" p-id="8022"></path></svg>