<?xml version="1.0" standalone="no"?><!DOCTYPE svg PUBLIC "-//W3C//DTD SVG 1.1//EN" "http://www.w3.org/Graphics/SVG/1.1/DTD/svg11.dtd"><svg t="1611650554387" class="icon" viewBox="0 0 1024 1024" version="1.1" xmlns="http://www.w3.org/2000/svg" p-id="1813" xmlns:xlink="http://www.w3.org/1999/xlink" width="200" height="200"><defs><style type="text/css"></style></defs><path d="M38.429756 637.854451c-10.547933 0-21.043866-4.299973-28.646818-12.799919-14.13091-15.8199-12.773919-40.089746 3.019981-54.219655l430.587267-385.301555L625.45603 344.226315 958.429916 11.251429c15.001905-15.001905 39.295751-15.001905 54.297656 0 15.000905 14.975905 15.000905 39.32075 0 54.296655l-383.662565 383.687564L444.030181 287.984672 64.002594 628.075513a38.262757 38.262757 0 0 1-25.573838 9.778938zM166.401944 1024h-51.199675C51.689672 1024 0.004 972.314328 0.004 908.800731V780.804544c0-63.513597 51.685672-115.199269 115.199269-115.199269h51.198675c63.512597 0 115.199269 51.685672 115.199268 115.199269V908.800731c0 63.512597-51.686672 115.198269-115.199268 115.198269z m-51.199675-281.596213c-21.169866 0-38.399756 17.227891-38.399757 38.399757V908.800731c0 21.169866 17.229891 38.399756 38.399757 38.399756h51.199675c21.170866 0 38.399756-17.229891 38.399756-38.399756v-127.999187c0-21.169866-17.228891-38.399756-38.399756-38.399757h-51.199675zM524.796669 1024h-51.198675c-63.512597 0-115.199269-51.685672-115.199269-115.199269V627.205519c0-63.512597 51.686672-115.198269 115.199269-115.198269h51.199675c63.512597 0 115.198269 51.685672 115.198269 115.199269V908.800731C639.995938 972.314328 588.310266 1024 524.796669 1024z m-51.198675-435.194238c-21.170866 0-38.399756 17.227891-38.399756 38.399757V908.800731c0 21.169866 17.228891 38.399756 38.399756 38.399756h51.199675c21.169866 0 38.399756-17.229891 38.399756-38.399756V627.204519c0-21.169866-17.229891-38.399756-38.399756-38.399757h-51.199675zM908.792231 1024h-76.799512c-63.511597 0-115.198269-51.685672-115.198269-115.199269V473.607494c0-63.512597 51.686672-115.198269 115.199269-115.198269h76.799512c63.511597 0 115.198269 51.685672 115.198269 115.199269V908.800731c0 63.512597-51.686672 115.198269-115.199269 115.198269z m-76.799512-588.792263c-21.169866 0-38.398756 17.227891-38.398756 38.399757V908.800731c0 21.169866 17.228891 38.399756 38.399756 38.399756h76.799512c21.169866 0 38.398756-17.229891 38.398757-38.399756V473.606494c0-21.169866-17.228891-38.399756-38.399757-38.399757h-76.799512z" p-id="1814"></path><path d="M985.591744 320.008469c-21.196865 0-38.399756-17.176891-38.399756-38.399757V76.813012H742.394288c-21.195865 0-38.399756-17.177891-38.399757-38.399756s17.203891-38.399756 38.399757-38.399756h281.597212v281.597212c0 21.221865-17.203891 38.399756-38.399756 38.399757z" p-id="1815"></path></svg>