<?xml version="1.0" standalone="no"?><!DOCTYPE svg PUBLIC "-//W3C//DTD SVG 1.1//EN" "http://www.w3.org/Graphics/SVG/1.1/DTD/svg11.dtd"><svg t="1611650572557" class="icon" viewBox="0 0 1024 1024" version="1.1" xmlns="http://www.w3.org/2000/svg" p-id="1948" xmlns:xlink="http://www.w3.org/1999/xlink" width="200" height="200"><defs><style type="text/css"></style></defs><path d="M716.8 1013.76c-157.01333333 0-283.30666667-126.29333333-283.30666667-283.30666667S556.37333333 443.73333333 716.8 443.73333333s283.30666667 126.29333333 283.30666667 283.30666667-126.29333333 286.72-283.30666667 286.72z m0-498.34666667c-119.46666667 0-215.04 95.57333333-215.04 215.04s95.57333333 215.04 215.04 215.04 215.04-95.57333333 215.04-215.04c-3.41333333-119.46666667-98.98666667-215.04-215.04-215.04z m92.16 283.30666667h-146.77333333l27.30666666 47.78666667c3.41333333 3.41333333-3.41333333 13.65333333-13.65333333 20.48s-20.48 6.82666667-23.89333333 3.41333333c0 0-54.61333333-81.92-54.61333334-92.16v-3.41333333-3.41333334c3.41333333-10.24 10.24-20.48 23.89333334-20.48h187.73333333c13.65333333 0 23.89333333 10.24 23.89333333 23.89333334 0 13.65333333-10.24 23.89333333-23.89333333 23.89333333z m23.89333333-112.64c-3.41333333 10.24-10.24 20.48-23.89333333 20.48h-187.73333333c-13.65333333 0-23.89333333-10.24-23.89333334-23.89333333s10.24-23.89333333 23.89333334-23.89333334h146.77333333l-27.30666667-47.78666666c-3.41333333-3.41333333 3.41333333-13.65333333 13.65333334-20.48s20.48-6.82666667 23.89333333-3.41333334c0 0 54.61333333 81.92 54.61333333 92.16v6.82666667c0-3.41333333 0 0 0 0zM682.66666667 252.58666667c13.65333333 0 23.89333333 10.24 23.89333333 23.89333333s-10.24 23.89333333-23.89333333 23.89333333H215.04c-10.24 0-23.89333333-10.24-23.89333333-23.89333333s13.65333333-23.89333333 23.89333333-23.89333333H682.66666667zM215.04 679.25333333h119.46666667c13.65333333 0 23.89333333 10.24 23.89333333 23.89333334s-10.24 23.89333333-23.89333333 23.89333333H215.04c-13.65333333 0-23.89333333-10.24-23.89333333-23.89333333s13.65333333-23.89333333 23.89333333-23.89333334z" p-id="1949"></path><path d="M808.96 133.12c0-27.30666667-20.48-47.78666667-47.78666667-47.78666667h-614.4c-27.30666667 0-47.78666667 20.48-47.78666666 47.78666667v689.49333333c0 27.30666667 20.48 47.78666667 47.78666666 47.78666667h269.65333334c13.65333333 27.30666667 27.30666667 51.2 44.37333333 71.68H122.88c-51.2 0-95.57333333-40.96-95.57333333-95.57333333V109.22666667c0-51.2 40.96-95.57333333 95.57333333-95.57333334H785.06666667c51.2 0 95.57333333 40.96 95.57333333 95.57333334v331.09333333c-23.89333333-13.65333333-47.78666667-23.89333333-71.68-30.72V133.12z" p-id="1950"></path><path d="M450.56 467.62666667c13.65333333 0 23.89333333 10.24 23.89333333 23.89333333s-10.24 23.89333333-23.89333333 23.89333333H215.04c-13.65333333 0-23.89333333-10.24-23.89333333-23.89333333s10.24-23.89333333 23.89333333-23.89333333h235.52z" p-id="1951"></path></svg>