<?xml version="1.0" standalone="no"?><!DOCTYPE svg PUBLIC "-//W3C//DTD SVG 1.1//EN" "http://www.w3.org/Graphics/SVG/1.1/DTD/svg11.dtd"><svg t="1612084292482" class="icon" viewBox="0 0 1024 1024" version="1.1" xmlns="http://www.w3.org/2000/svg" p-id="6170" xmlns:xlink="http://www.w3.org/1999/xlink" width="200" height="200"><defs><style type="text/css"></style></defs><path d="M519.265524 14.652952c68.461714 0 123.855238 55.783619 123.855238 124.489143 0 38.278095-32.207238 118.710857-80.018286 220.062476l-4.534857 9.557334-38.424381-18.261334-39.838476 18.968381-13.336381-28.355047c-41.618286-89.526857-69.632-161.03619-71.460571-198.265905l-0.097524-3.705905c0-68.705524 55.417905-124.489143 123.855238-124.489143z m0 60.952381c-34.694095 0-62.902857 28.40381-62.902857 63.536762 0 21.162667 23.82019 83.407238 56.807619 156.379429l6.070857 13.360762 9.99619-21.967238c29.842286-66.755048 51.297524-123.14819 52.833524-145.383619l0.097524-2.389334c0-35.132952-28.208762-63.536762-62.902857-63.536762z" p-id="6171"></path><path d="M183.710476 212.23619a121.465905 121.465905 0 0 0 58.660572 161.450667c23.015619 10.752 67.437714 15.896381 132.242285 18.285714a2222.567619 2222.567619 0 0 0 93.93981 1.340953l37.327238-0.487619c25.161143-0.633905 38.765714-29.744762 23.088762-49.468953l-6.485333-8.070095a2502.631619 2502.631619 0 0 0-72.045715-84.967619l-11.629714-12.921905-5.680762-6.192762c-38.15619-41.350095-66.80381-67.779048-87.942095-77.653333a121.441524 121.441524 0 0 0-161.475048 58.684952z m135.68-3.462095c11.02019 5.168762 36.742095 28.842667 68.924953 63.756191l10.995809 12.068571c1.877333 2.048 3.754667 4.144762 5.632 6.290286l13.312 15.067428 6.680381 7.704381 15.945143 18.67581-18.358857-0.146286c-15.36-0.195048-30.72-0.560762-45.665524-1.097143l-14.092191-0.609523c-48.103619-2.29181-83.21219-6.680381-94.598095-12.01981A60.513524 60.513524 0 1 1 319.390476 208.774095z" p-id="6172"></path><path d="M672.597333 153.551238c-21.138286 9.874286-49.810286 36.303238-87.942095 77.653333l-11.459048 12.556191-5.851428 6.558476a2196.577524 2196.577524 0 0 0-41.20381 47.616l-22.674285 27.306667-14.677334 18.115047c-15.676952 19.69981-2.072381 48.835048 23.088762 49.444572l14.604191 0.26819a2322.285714 2322.285714 0 0 0 116.687238-1.072762l17.968762-0.78019c55.100952-2.681905 93.45219-7.801905 114.273524-17.529905a121.465905 121.465905 0 0 0 58.660571-161.475047 121.441524 121.441524 0 0 0-156.40381-60.90362l-5.071238 2.243048z m106.22781 84.455619a60.513524 60.513524 0 0 1-29.208381 80.457143c-12.483048 5.851429-53.394286 10.556952-108.714667 12.629333l-22.674285 0.682667-22.991239 0.414476-18.383238 0.146286 9.264762-10.898286 17.846857-20.553143 8.850286-9.99619c3.803429-4.266667 7.533714-8.387048 11.190857-12.434286l5.436953-5.924571c32.207238-34.913524 57.904762-58.587429 68.949333-63.756191a60.489143 60.489143 0 0 1 80.457143 29.232762zM165.863619 605.379048v342.991238h706.779429V605.379048h60.952381v373.491809a30.47619 30.47619 0 0 1-27.355429 30.305524l-3.096381 0.170667H135.387429a30.47619 30.47619 0 0 1-30.305524-27.355429l-0.170667-3.120762v-373.51619h60.952381z" p-id="6173"></path><path d="M965.38819 325.90019c15.774476 0 28.769524 11.995429 30.305524 27.355429l0.170667 3.120762v186.758095a30.47619 30.47619 0 0 1-27.355429 30.305524l-3.120762 0.170667H587.751619v-60.952381l347.136-0.024381v-125.781334H103.619048v125.781334h346.940952v60.952381H73.142857a30.47619 30.47619 0 0 1-30.329905-27.355429l-0.146285-3.096381v-186.758095c0-15.774476 11.995429-28.769524 27.355428-30.329905L73.142857 325.90019h892.245333z" p-id="6174"></path><path d="M478.646857 362.032762v616.545524h-60.952381V362.057143zM600.064 362.032762v616.545524h-60.952381V362.057143z" p-id="6175"></path></svg>