<?xml version="1.0" standalone="no"?><!DOCTYPE svg PUBLIC "-//W3C//DTD SVG 1.1//EN" "http://www.w3.org/Graphics/SVG/1.1/DTD/svg11.dtd"><svg t="1612084354023" class="icon" viewBox="0 0 1024 1024" version="1.1" xmlns="http://www.w3.org/2000/svg" p-id="7492" xmlns:xlink="http://www.w3.org/1999/xlink" width="200" height="200"><defs><style type="text/css"></style></defs><path d="M680.150326 378.522791c15.431442 0 28.100465 11.716465 29.624558 26.743069l0.142883 3.024373v385.143069a29.767442 29.767442 0 0 1-59.368186 3.048186l-0.166697-3.048186V408.290233c0-16.431628 13.335814-29.767442 29.767442-29.767442zM366.47293 378.522791c15.407628 0 28.100465 11.716465 29.600744 26.743069l0.166698 3.024373v385.143069a29.767442 29.767442 0 0 1-59.392 3.048186l-0.142884-3.048186V408.290233c0-16.431628 13.335814-29.767442 29.767442-29.767442zM443.844465 159.077209v136.644465h-59.534884V159.101023zM662.28986 159.077209v136.644465h-59.534883V159.101023zM515.97693 17.860465c39.126326 0 70.632186 4.357953 95.279628 11.811721 16.360186 4.953302 27.362233 10.47814 33.67293 15.193302 6.572651 4.905674 10.787721 12.288 11.740279 20.337117l0.190512 3.500651v58.296558h-59.534884V87.682977l-3.310139-1.024c-18.860651-5.715349-44.579721-9.263628-78.038326-9.263628-30.672372 0-54.843535 2.976744-73.180279 7.858604l-6.453581 1.905117-1.738419 0.523907v39.316837h-59.534884V68.703256c0-9.382698 4.429395-18.217674 11.954605-23.837768 6.310698-4.738977 17.312744-10.24 33.67293-15.193302C445.32093 22.218419 476.874419 17.860465 515.97693 17.860465z" p-id="7493"></path><path d="M685.698977 271.883907H346.254884c-62.916465 0-114.045023 52.10493-114.045024 115.664372v431.461209c0 63.583256 51.128558 115.688186 114.045024 115.688186h339.467907c62.940279 0 114.068837-52.10493 114.068837-115.688186V387.548279c0-63.559442-51.128558-115.664372-114.068837-115.664372z m-339.467907 59.534884h339.467907c29.791256 0 54.533953 25.195163 54.533953 56.129488v431.461209c0 30.95814-24.742698 56.153302-54.533953 56.153303H346.254884c-29.767442 0-54.51014-25.195163-54.51014-56.153303V387.548279c0-30.934326 24.718884-56.129488 54.51014-56.129488z" p-id="7494"></path><path d="M523.906977 430.627721c-27.40986 0-53.581395 11.287814-53.581396 37.721302S496.497116 506.046512 523.906977 506.046512s53.581395-11.264 53.581395-37.697489c0-26.433488-26.171535-37.721302-53.581395-37.721302z m-0.476279 20.908651l0.476279-0.642977 0.476279 0.642977c3.214884 4.286512 5.477209 9.549395 5.477209 16.812651l-0.190512 3.453024c-0.595349 5.501023-2.619535 9.763721-5.262883 13.335813l-0.523907 0.619163-0.476279-0.595349a27.005023 27.005023 0 0 1-5.453396-16.812651c0-7.263256 2.262326-12.502326 5.47721-16.812651zM377.403535 958.22586c0 2.309953 2.048 4.33414 4.762791 4.33414 2.238512 0 4.024558-1.381209 4.548465-3.214884l0.166697-1.119256h59.534884a64.059535 64.059535 0 0 1-64.27386 63.869024 64.107163 64.107163 0 0 1-64.130977-59.820651l-0.142884-4.048373h59.534884zM643.905488 958.22586c0 2.309953 2.048 4.33414 4.762791 4.33414 2.238512 0 4.048372-1.405023 4.572279-3.214884l0.166698-1.119256h59.534884a64.059535 64.059535 0 0 1-64.273861 63.869024 64.130977 64.130977 0 0 1-64.178605-59.820651l-0.119069-4.048373h59.534883z" p-id="7495"></path></svg>