<?xml version="1.0" standalone="no"?><!DOCTYPE svg PUBLIC "-//W3C//DTD SVG 1.1//EN" "http://www.w3.org/Graphics/SVG/1.1/DTD/svg11.dtd"><svg t="1612084316736" class="icon" viewBox="0 0 1024 1024" version="1.1" xmlns="http://www.w3.org/2000/svg" p-id="6756" xmlns:xlink="http://www.w3.org/1999/xlink" width="200" height="200"><defs><style type="text/css"></style></defs><path d="M747.568762 107.78819l173.83619-102.107428 96.938667 96.841143-102.253714 173.641143-71.948191 3.827809-155.769904 156.038095-43.129905-43.081142 172.30019-172.544 62.610286-3.364572 61.70819-104.789333-30.232381-30.183619-104.96 61.683809-3.291428 62.439619-172.300191 172.519619-43.105523-43.081143 155.769904-155.989333zM489.764571 362.617905l-0.195047 3.364571c-0.073143 3.413333-2.194286 12.214857-8.923429 26.380191-12.117333 25.478095-34.133333 55.661714-68.656762 90.185143-25.746286 25.746286-50.127238 42.910476-73.362285 50.322285l-21.552762 5.436953c-83.626667 21.699048-136.43581 43.885714-192.365715 89.112381l-7.94819 6.777904c-16.847238 14.799238-49.371429 44.860952-59.245714 56.124953l-3.120762 3.827809c-7.558095 9.411048-13.604571 17.993143-19.992381 29.671619a168.813714 168.813714 0 0 0-19.285334 56.490667c-8.045714 54.247619 11.849143 110.006857 65.219048 163.352381 76.873143 76.873143 155.014095 82.748952 222.354286 44.568381 4.754286-2.681905 9.216-5.510095 13.482666-8.411429l6.265905-4.461714c3.584-2.681905 11.459048-8.94781 9.264762-7.265524 10.922667-8.43581 55.832381-57.539048 64.926476-68.851809 48.932571-60.513524 70.826667-117.272381 95.085715-215.79581 6.826667-21.308952 23.966476-45.641143 49.737142-71.43619 35.498667-35.449905 66.31619-57.685333 92.16-69.534477 8.313905-3.82781 15.262476-6.168381 20.772572-7.363047l2.950095-0.658286 4.047238-0.195047c20.114286-2.389333 36.449524-14.799238 37.10781-36.864 0.341333-11.385905-3.584-20.845714-10.825143-31.305143l-3.949714-5.436953c-6.314667-8.387048-10.435048-13.092571-26.648381-29.427809l-42.642286-42.593524-22.796191-22.869333c-15.384381-15.189333-23.552-22.381714-32.841142-28.842667-28.769524-20.065524-64.121905-15.579429-68.998096 25.697524z m51.004953 44.422095l1.609143-4.169143 7.192381 7.046095 71.582476 71.704381-1.609143 0.609524c-3.657143 1.414095-7.43619 3.023238-11.410286 4.876191-32.670476 15.018667-69.38819 41.447619-109.763047 81.798095-32.060952 32.085333-54.467048 63.878095-65.292191 98.035809l-5.217524 20.577524c-20.699429 79.457524-40.106667 125.756952-78.677333 173.446095l-3.34019 3.925334c-11.215238 12.873143-42.179048 46.567619-50.224762 53.979428l-9.484191 7.509334a131.900952 131.900952 0 0 1-13.531428 8.825904c-44.665905 25.35619-92.818286 21.699048-149.162667-34.620952-40.106667-40.082286-53.174857-76.726857-48.030476-111.323429 2.998857-20.309333 10.971429-36.400762 22.552381-51.858285l5.802666-7.41181c4.924952-6.339048 51.346286-48.761905 59.270096-55.198476 51.687619-41.764571 101.863619-61.123048 192.121904-83.285333 36.08381-11.434667 67.900952-33.840762 99.937524-65.877334 39.253333-39.204571 65.340952-75.02019 80.603429-107.081142 1.901714-3.998476 3.584-7.826286 5.071238-11.50781z" p-id="6757"></path><path d="M80.847238 665.990095a30.47619 30.47619 0 0 1 40.618667-2.218666l2.486857 2.218666 234.057143 234.057143a30.47619 30.47619 0 0 1-40.618667 45.324191l-2.486857-2.218667-234.057143-234.057143a30.47619 30.47619 0 0 1 0-43.105524z" p-id="6758"></path></svg>