<?xml version="1.0" standalone="no"?><!DOCTYPE svg PUBLIC "-//W3C//DTD SVG 1.1//EN" "http://www.w3.org/Graphics/SVG/1.1/DTD/svg11.dtd"><svg t="1613642174668" class="icon" viewBox="0 0 1024 1024" version="1.1" xmlns="http://www.w3.org/2000/svg" p-id="10411" xmlns:xlink="http://www.w3.org/1999/xlink" width="200" height="200"><defs><style type="text/css"></style></defs><path d="M513.47456 349.14304l-235.08992-61.46048a17.79712 17.79712 0 0 0-21.8112 12.30848 17.36704 17.36704 0 0 0 12.61568 21.31968l235.02848 61.50144a17.8176 17.8176 0 0 0 21.8112-12.30848 17.34656 17.34656 0 0 0-12.55424-21.36064z m52.49024 25.6c0.67584-0.88064 1.26976-1.8432 2.10944-2.6624-0.83968 0.77824-1.4336 1.78176-2.10944 2.6624z m-1.04448 2.72384c-0.69632 0.94208-1.024 1.90464-1.55648 2.8672 0.512-0.9216 0.86016-1.92512 1.55648-2.8672z m9.03168-8.99072c-1.24928 0.53248-2.2528 1.31072-3.44064 2.048 1.16736-0.73728 2.19136-1.51552 3.44064-2.048zM1021.41952 458.752l-110.8992-189.29664c-0.34816-0.32768-0.67584-0.55296-0.83968-0.88064v-0.04096a17.92 17.92 0 0 0-2.94912-3.23584c-0.512-0.47104-1.024-0.96256-1.59744-1.39264a19.29216 19.29216 0 0 0-4.1984-2.00704c-0.512-0.18432-1.024-0.47104-1.51552-0.6144l-0.16384-0.02048-0.26624-0.08192L477.5936 164.80256a18.69824 18.69824 0 0 0-9.6256 0.38912L167.36256 261.5296a2.39616 2.39616 0 0 0-0.55296 0.34816h-0.08192a16.13824 16.13824 0 0 0-3.95264 2.2528c-0.59392 0.38912-1.24928 0.55296-1.76128 1.024l-154.5216 135.7824a17.1008 17.1008 0 0 0-3.3792 21.93408c3.33824 5.38624 9.17504 8.3968 15.27808 8.3968a18.6368 18.6368 0 0 0 6.20544-1.08544l94.55616-34.34496a17.32608 17.32608 0 0 0 10.4448-22.40512 17.96096 17.96096 0 0 0-22.89664-10.24l-6.67648 2.43712 55.0912-48.4352v460.30848c0 7.90528 5.57056 14.80704 13.47584 16.81408l406.1184 101.23264c1.76128 0.59392 3.6864 0.83968 5.55008 0.83968h0.512-0.512H581.77536c0.16384 0 0.24576 0 0.32768-0.08192 1.35168-0.08192 2.70336-0.4096 3.95264-0.75776 0.26624-0.16384 0.43008-0.16384 0.6144-0.32768l304.16896-101.23264a17.55136 17.55136 0 0 0 12.10368-16.4864V520.66304l108.78976-36.78208a17.2032 17.2032 0 0 0 9.66656-25.14944z m-830.6688-168.01792l-8.66304 2.7648-26.95168 23.67488v-0.04096L182.0672 293.4784l8.64256-2.7648z m373.5552 580.608z m10.15808-503.0912c-0.16384 0.04096-0.24576 0.16384-0.4096 0.24576-1.35168 0.512-2.37568 1.26976-3.54304 1.98656-0.83968 0.53248-1.67936 0.96256-2.4576 1.6384-0.8192 0.79872-1.41312 1.76128-2.08896 2.64192-0.59392 0.9216-1.35168 1.72032-1.8432 2.72384-0.34816 0.94208-0.512 1.9456-0.67584 2.8672-0.4096 1.26976-0.83968 2.4576-0.83968 3.7888v0.08192c0 0.16384-0.08192 0.28672-0.08192 0.47104v471.9616L190.7712 763.98592v-473.2928l283.58656-90.86976 356.61824 81.5104L574.464 368.2304z m18.2272 523.28448z m287.21152-399.91296l1.51552-0.36864a18.08384 18.08384 0 0 0-2.68288 0.79872c0.24576-0.08192 0.512-0.16384 0.67584-0.24576l-154.54208 52.24448-71.12704-100.31104a18.16576 18.16576 0 0 0-24.8832-4.36224 17.12128 17.12128 0 0 0-4.46464 24.20736l78.9504 111.2064a17.98144 17.98144 0 0 0 20.52096 6.51264l143.44192-48.55808v-24.4736V765.07136l-269.23008 89.62048-17.14176 5.7344 17.14176-5.7344V397.06624l288.72704-97.792-7.31136-12.51328a16.9984 16.9984 0 0 1 0.32768-17.8176 17.18272 17.18272 0 0 0-0.24576 17.8176l7.22944 12.51328 14.04928-4.73088-14.04928 4.73088 92.9792 158.53568-99.88096 33.792z m5.59104-0.75776a17.73568 17.73568 0 0 0-2.048 0.18432c0.7168-0.08192 1.4336-0.18432 2.048-0.18432z m-1.67936 0.14336c-0.77824 0.08192-1.4336 0.24576-2.048 0.4096 0.63488-0.16384 1.26976-0.32768 2.048-0.4096z m-13.49632 7.51616z m3.70688-2.99008c0.512-0.512 1.20832-1.024 1.90464-1.55648-0.69632 0.53248-1.39264 1.024-1.90464 1.55648z m1.35168-1.2288c0.67584-0.43008 1.37216-0.77824 1.88416-1.1264-0.512 0.34816-1.20832 0.69632-1.88416 1.1264z m1.4336-0.79872c0.6144-0.43008 1.41312-0.77824 2.048-1.1264-0.63488 0.34816-1.4336 0.69632-2.048 1.1264z m-312.64768-113.152c-0.69632 1.26976-1.55648 2.4576-1.55648 3.7888 0-1.31072 0.86016-2.51904 1.55648-3.7888z" p-id="10412"></path></svg>