<?xml version="1.0" standalone="no"?><!DOCTYPE svg PUBLIC "-//W3C//DTD SVG 1.1//EN" "http://www.w3.org/Graphics/SVG/1.1/DTD/svg11.dtd"><svg t="1612084340027" class="icon" viewBox="0 0 1024 1024" version="1.1" xmlns="http://www.w3.org/2000/svg" p-id="7345" xmlns:xlink="http://www.w3.org/1999/xlink" width="200" height="200"><defs><style type="text/css"></style></defs><path d="M654.545455 433.384727c39.400727 0 72.517818 29.719273 74.752 67.816728l0.116363 4.119272v135.936l151.854546 23.505455c10.170182 1.908364 23.156364 6.749091 36.445091 16.244363l5.003636 3.770182c23.319273 18.688 37.841455 46.545455 39.377454 82.990546l0.139637 6.516363-0.116364 2.466909-16.733091 196.328728a29.090909 29.090909 0 0 1-58.065454-1.954909l0.093091-2.978909 16.593454-194.746182-0.069818-4.002909c-0.861091-17.338182-6.330182-28.951273-15.127273-37.073455l-2.466909-2.117818a46.824727 46.824727 0 0 0-13.963636-7.866182l-0.930909-0.232727-175.569455-27.159273a29.090909 29.090909 0 0 1-24.506182-25.902545l-0.139636-2.839273v-160.884364c0-6.4-5.934545-12.520727-14.149818-13.591272l-2.56-0.16291h-3.816727c-8.610909 0-15.36 5.585455-16.523637 11.869091l-0.162909 1.861819V818.036364c0 24.482909-28.066909 37.608727-46.778182 23.133091l-2.164363-1.861819-83.781819-78.242909c-5.911273-5.585455-16.058182-6.190545-22.87709-1.768727l-2.141091 1.652364-5.003637 4.654545a11.869091 11.869091 0 0 0-1.815272 16.221091l1.582545 1.792 184.226909 172.637091A29.090909 29.090909 0 0 1 617.914182 1000.727273l-2.420364-2.048-184.32-172.730182a70.074182 70.074182 0 0 1-2.676363-99.886546l3.258181-3.16509 5.003637-4.654546c27.973818-25.879273 71.982545-26.717091 100.864-2.722909l3.537454 3.118545 34.653091 32.395637V505.320727c0-38.679273 31.790545-69.725091 70.702546-71.819636l4.189091-0.116364h3.84zM671.418182 163.304727a29.090909 29.090909 0 0 1 38.097454 7.563637l1.768728 2.629818 67.956363 114.711273a29.090909 29.090909 0 0 1-48.267636 32.302545l-1.768727-2.653091-67.956364-114.688a29.090909 29.090909 0 0 1 10.170182-39.866182z" p-id="7346"></path><path d="M797.207273 173.498182a29.090909 29.090909 0 0 1 51.525818 26.856727l-1.466182 2.792727-68.002909 114.734546a29.090909 29.090909 0 0 1-51.525818-26.88l1.466182-2.792727 68.002909-114.734546z" p-id="7347"></path><path d="M754.222545 273.92c15.080727 0 27.461818 11.473455 28.951273 26.135273l0.139637 2.978909v115.665454a29.090909 29.090909 0 0 1-58.01891 3.002182l-0.162909-2.978909V303.010909c0-16.058182 13.032727-29.090909 29.090909-29.090909zM596.433455 156.090182c15.057455 0 27.461818 11.450182 28.928 26.135273l0.162909 2.955636v150.458182c0 53.341091-44.404364 96.512-98.443637 96.512-52.363636 0-95.697455-40.610909-98.280727-91.694546l-0.116364-4.817454V185.181091a29.090909 29.090909 0 0 1 58.042182-2.955636l0.139637 2.955636v150.458182c0 20.829091 17.989818 38.330182 40.238545 38.330182 21.061818 0 38.330182-15.709091 40.075636-35.072l0.162909-3.258182V185.181091c0-16.058182 13.032727-29.090909 29.09091-29.090909zM307.898182 156.090182c42.775273 0 77.544727 34.420364 79.825454 77.102545l0.116364 4.445091v4.049455c0 19.362909-6.702545 37.259636-17.92 51.316363l-0.930909 1.117091 0.930909 1.117091a82.152727 82.152727 0 0 1 17.803636 46.894546l0.116364 4.421818v4.072727c0 43.217455-33.349818 79.057455-75.543273 81.408l-4.375272 0.116364H239.918545a29.090909 29.090909 0 0 1-28.951272-26.112l-0.139637-2.978909V185.181091c0-15.057455 11.426909-27.461818 26.112-28.928l2.978909-0.162909h68.00291z m-38.912 167.121454v50.757819h38.935273c10.845091 0 20.293818-8.936727 21.573818-20.619637l0.162909-2.722909v-4.049454c0-12.055273-8.680727-21.876364-19.269818-23.20291l-2.466909-0.162909h-38.935273z m0-58.181818h38.935273c10.845091 0 20.293818-8.936727 21.573818-20.619636l0.162909-2.722909v-4.049455c0-12.055273-8.680727-21.876364-19.269818-23.202909l-2.466909-0.162909h-38.935273v50.757818z" p-id="7348"></path><path d="M828.439273 17.454545c82.432 0 150.574545 63.348364 153.506909 142.615273l0.093091 5.306182V403.083636c0 79.965091-66.373818 145.058909-148.130909 147.851637l-5.469091 0.093091H768.232727v-58.181819h60.229818c51.106909 0 92.811636-38.330182 95.301819-85.34109l0.116363-4.421819V165.376c0-47.476364-40.168727-87.272727-90.647272-89.623273l-4.77091-0.116363H205.963636c-51.106909 0-92.811636 38.330182-95.301818 85.317818l-0.116363 4.421818V403.083636c0 47.476364 40.168727 87.272727 90.647272 89.646546l4.770909 0.116363h335.522909v58.181819H205.963636c-82.408727 0-150.574545-63.371636-153.506909-142.638546L52.363636 403.083636V165.376C52.363636 85.434182 118.737455 20.340364 200.471273 17.547636L205.963636 17.454545h622.475637z" p-id="7349"></path></svg>