<?xml version="1.0" standalone="no"?><!DOCTYPE svg PUBLIC "-//W3C//DTD SVG 1.1//EN" "http://www.w3.org/Graphics/SVG/1.1/DTD/svg11.dtd"><svg t="1612084273264" class="icon" viewBox="0 0 1024 1024" version="1.1" xmlns="http://www.w3.org/2000/svg" p-id="5733" xmlns:xlink="http://www.w3.org/1999/xlink" width="200" height="200"><defs><style type="text/css"></style></defs><path d="M514.56 51.921455c15.057455 0 27.461818 11.450182 28.928 26.135272l0.162909 2.955637 0.023273 302.731636c-0.046545 44.776727-36.165818 81.175273-80.942546 83.479273l-3.630545 0.093091 0.023273 469.899636c0 37.213091-32.628364 67.118545-69.701819 69.213091l-4.119272 0.116364c-37.352727 0-71.330909-28.578909-73.704728-65.210182l-0.139636-4.119273V467.316364l-3.584-0.093091C264.564364 465.012364 229.352727 430.917818 227.025455 388.189091l-0.116364-4.445091V81.035636a29.090909 29.090909 0 0 1 58.042182-2.978909l0.162909 2.978909-0.023273 302.685091c0 12.8 10.565818 23.877818 24.273455 25.297455l3.002181 0.139636h28.183273c15.057455 0 27.461818 11.450182 28.951273 26.112l0.139636 2.978909v498.967273c0 4.608 7.447273 11.147636 15.662546 11.147636 7.354182 0 14.149818-5.306182 15.429818-9.704727l0.232727-1.442909-0.023273-498.967273c0-15.057455 11.450182-27.461818 26.112-28.928l2.97891-0.162909h28.183272c14.126545 0 25.646545-10.216727 27.112728-22.714182l0.162909-2.722909-0.023273-302.685091c0-16.058182 13.032727-29.090909 29.090909-29.090909z" p-id="5734"></path><path d="M344.599273 56.133818c15.057455 0 27.461818 11.450182 28.951272 26.112l0.139637 2.978909v232.820364a29.090909 29.090909 0 0 1-58.042182 2.978909l-0.139636-2.978909V85.224727c0-16.058182 13.032727-29.090909 29.090909-29.090909zM428.288 56.133818c15.080727 0 27.461818 11.450182 28.951273 26.112l0.139636 2.978909v232.820364a29.090909 29.090909 0 0 1-58.065454 2.955636l-0.139637-2.955636 0.023273-232.820364c0-16.058182 13.032727-29.090909 29.090909-29.090909zM738.373818 86.155636l4.910546-2.978909 0.302545 16.942546 0.488727 836.142545c0 5.399273-7.354182 12.101818-14.894545 12.101818-7.866182 0-15.709091-6.981818-15.709091-12.125091l-0.861091-387.304727-0.186182-3.234909a29.090909 29.090909 0 0 0-15.546182-22.551273l-30.859636-15.941818 34.001455-369.221818-0.186182 0.930909c3.351273-17.92 13.125818-32.721455 27.880727-44.962909 3.444364-2.839273 7.028364-5.422545 10.658909-7.796364zM741.701818 20.107636l-2.094545 0.744728c-13.032727 4.398545-30.952727 13.358545-48.989091 28.299636-24.576 20.340364-41.914182 46.615273-47.988364 79.127273l-0.372363 2.653091-35.956364 390.446545-0.139636 3.211636c0.209455 10.589091 6.167273 20.363636 15.732363 25.297455l32.581818 16.826182 0.814546 369.617454c0.046545 38.842182 35.351273 70.260364 73.914182 70.213819 38.516364 0 73.006545-31.488 73.076363-70.283637l-0.605091-843.589818-0.186181-10.309818c-0.395636-17.152-1.396364-25.320727-4.747637-35.095273-8.238545-23.970909-30.184727-35.258182-55.04-27.159273z" p-id="5735"></path></svg>