<?xml version="1.0" standalone="no"?><!DOCTYPE svg PUBLIC "-//W3C//DTD SVG 1.1//EN" "http://www.w3.org/Graphics/SVG/1.1/DTD/svg11.dtd"><svg t="1612084298692" class="icon" viewBox="0 0 1098 1024" version="1.1" xmlns="http://www.w3.org/2000/svg" p-id="6318" xmlns:xlink="http://www.w3.org/1999/xlink" width="214.453125" height="200"><defs><style type="text/css"></style></defs><path d="M1029.219902 347.660488a31.219512 31.219512 0 0 1 30.120586 54.596683l-2.797268 1.548488-103.274147 50.225951a31.219512 31.219512 0 0 1-30.120585-54.596683l2.797268-1.548488 103.274146-50.225951z" p-id="6319"></path><path d="M335.772098 92.334829c40.660293 0 78.348488 20.430049 113.189463 53.447805 11.838439 11.239024 21.853659 22.453073 29.845854 32.418342l1.523512 1.973073 5.619512-0.674342c11.189073-1.198829 21.978537-1.948098 32.693073-2.247805l10.689561-0.174829h40.710244v62.439025h-40.710244c-14.985366 0-30.145561 1.098927-46.754341 3.29678l-10.140098 1.42361-5.219902 0.349658h-1.82322a31.219512 31.219512 0 0 1-25.550049-14.061268l-3.246829-4.620488a263.442732 263.442732 0 0 0-30.620097-34.791024A169.659317 169.659317 0 0 0 372.136585 165.563317l-4.645463-2.44761 1.24878 92.734439c0.099902 6.743415-1.998049 13.262049-5.894243 18.681756l-2.097952 2.597464-0.799219 0.899122a31.219512 31.219512 0 0 1-8.092098 6.443707c-49.077073 27.198439-89.787317 65.336195-118.309463 110.691903l-5.219903 8.566634-2.397658 3.546536a50.850341 50.850341 0 0 1-8.99122 8.791415l-3.096975 2.222829-2.697366 1.748293c-21.928585 13.112195-72.379317 20.979512-122.130732 11.114146l-1.64839-0.374634 0.074927 1.173854c0.999024 20.904585 5.719415 51.125073 13.436878 87.989073l1.998049 9.365854c2.922146 13.53678 6.193951 27.722927 9.740487 42.308682 4.245854 17.557854 8.741463 35.115707 13.237074 52.199025l6.268878 23.127415h55.146146c10.789463 0 20.729756 5.544585 26.399219 14.56078l1.748293 3.121951c30.969756 64.362146 85.766244 118.359415 152.97561 150.777756l12.387902 5.794342c9.540683 4.745366 15.934439 13.986341 17.133269 24.451122l0.199805 3.496585-0.024976 105.621854h62.464v-73.428293c0-17.308098 13.986341-31.069659 30.869854-31.219512l3.196878 0.099902c7.39278 0.674341 15.160195 1.123902 22.977561 1.373659l11.713561 0.174829H586.926829c11.813463 0 24.226341-0.549463 35.21561-1.548488a31.219512 31.219512 0 0 1 33.866927 27.897756l0.174829 3.196878-0.024975 73.453269h62.464v-106.27122c0-11.214049 5.994146-21.479024 15.559804-26.998634l2.972098-1.498536c116.086634-51.82439 191.313171-158.045659 191.313171-274.382049 0-90.836293-45.180878-175.828293-121.880976-233.846634l-7.292878-5.344781 36.339512-50.80039c97.005268 69.432195 155.273366 175.478634 155.273366 289.991805 0 133.869268-80.421463 255.125854-204.949854 320.087414l-4.895219 2.472586v87.939122a61.190244 61.190244 0 0 1-57.019317 60.990439l-3.996098 0.124878h-65.261268a61.140293 61.140293 0 0 1-60.940488-57.094244l-0.099902-3.996098-0.024976-42.033951-6.793366 0.099903h-57.593756l-6.318829-0.124879v42.033952a61.190244 61.190244 0 0 1-57.019317 60.990439l-3.996098 0.124878h-65.261268a61.165268 61.165268 0 0 1-60.915512-57.094244l-0.124878-3.996098-0.024976-87.314731-1.598439-0.79922c-67.958634-34.59122-124.403512-87.489561-161.442341-150.977561l-4.345756-7.692488-59.741659 0.049952a31.219512 31.219512 0 0 1-28.946732-19.480976l-1.024-2.997073-6.743414-23.95161-1.623415-5.844293c-6.218927-22.802732-12.437854-46.779317-18.257171-70.805853a1862.680976 1862.680976 0 0 1-10.06517-43.80722c-9.590634-44.206829-15.509854-80.696195-16.808586-107.594927-0.849171-17.932488 0.249756-32.043707 4.420683-43.557463 7.642537-21.004488 27.048585-33.367415 49.351805-27.598049l3.746341 1.123903a154.349268 154.349268 0 0 0 69.80683 6.918243c8.291902-1.048976 15.934439-2.622439 22.478049-4.495609l3.072-0.924098 2.048-3.346732c30.420293-48.75239 72.354341-90.411707 122.455414-121.880975l3.646439-2.222829-1.548488-114.962732a31.219512 31.219512 0 0 1 27.997659-31.469268l3.246829-0.17483z" p-id="6320"></path><path d="M722.944 24.101463a125.752195 125.752195 0 0 0-125.652293 125.852098 125.752195 125.752195 0 0 0 125.627317 125.852098c69.432195 0 125.677268-56.369951 125.677269-125.877074A125.752195 125.752195 0 0 0 722.944 24.126439z m0 62.439025a63.313171 63.313171 0 0 1 63.188293 63.413073 63.313171 63.313171 0 0 1-63.188293 63.413073 63.313171 63.313171 0 0 1-63.213268-63.438049 63.313171 63.313171 0 0 1 63.188292-63.388097zM546.516293 290.840976c38.137756-5.544585 78.62322-5.74439 117.435317 3.022048 13.361951 2.997073 26.149463 7.068098 38.28761 12.238049a31.219512 31.219512 0 1 1-24.476098 57.443903 160.293463 160.293463 0 0 0-27.573073-8.791415c-30.270439-6.818341-63.512976-6.643512-94.732488-2.122927l-7.242927 1.123903c-4.245854 0.749268-7.39278 1.373659-9.216 1.823219a31.219512 31.219512 0 1 1-14.585756-60.715707l5.494634-1.198829c4.345756-0.874146 9.915317-1.873171 16.608781-2.822244zM347.735415 345.337756a40.835122 40.835122 0 1 0 0 81.670244 40.835122 40.835122 0 0 0 0-81.670244z m0 19.23122a21.603902 21.603902 0 1 1 0 43.207804 21.603902 21.603902 0 0 1 0-43.207804z" p-id="6321"></path></svg>