<?xml version="1.0" standalone="no"?><!DOCTYPE svg PUBLIC "-//W3C//DTD SVG 1.1//EN" "http://www.w3.org/Graphics/SVG/1.1/DTD/svg11.dtd"><svg t="1613667323124" class="icon" viewBox="0 0 1024 1024" version="1.1" xmlns="http://www.w3.org/2000/svg" p-id="1364" xmlns:xlink="http://www.w3.org/1999/xlink" width="200" height="200"><defs><style type="text/css"></style></defs><path d="M931.84 512c0-59.61955555 37.43288889-110.13688889 89.88444445-130.27555555-12.51555555-49.152-31.85777778-95.45955555-57.11644445-138.01244445C913.18044445 266.58133333 851.05777778 257.25155555 808.96 215.04c-42.09777778-42.09777778-51.42755555-104.33422222-28.55822222-155.648C737.73511111 34.13333333 691.42755555 14.79111111 642.27555555 2.27555555c-20.25244445 52.45155555-70.76977778 89.88444445-130.27555555 89.88444445-59.61955555 0-110.13688889-37.43288889-130.27555555-89.88444445-49.152 12.51555555-95.45955555 31.85777778-138.01244445 57.11644445 22.86933333 51.42755555 13.53955555 113.55022222-28.55822222 155.648-42.09777778 42.09777778-104.33422222 51.42755555-155.648 28.672C34.13333333 286.26488889 14.79111111 332.57244445 2.27555555 381.72444445c52.45155555 20.25244445 89.88444445 70.76977778 89.88444445 130.27555555 0 59.61955555-37.43288889 110.13688889-89.88444445 130.27555555 12.51555555 49.152 31.85777778 95.45955555 57.11644445 138.01244445C110.81955555 757.41866667 172.94222222 766.74844445 215.04 808.96c42.09777778 42.09777778 51.42755555 104.33422222 28.55822222 155.648C286.26488889 989.86666667 332.57244445 1009.20888889 381.72444445 1021.72444445c20.25244445-52.45155555 70.76977778-89.88444445 130.27555555-89.88444445 59.61955555 0 110.13688889 37.43288889 130.27555555 89.88444445 49.152-12.51555555 95.45955555-31.85777778 138.01244445-57.11644445-22.86933333-51.42755555-13.53955555-113.55022222 28.55822222-155.648 42.09777778-42.09777778 104.33422222-51.42755555 155.648-28.672C989.86666667 737.73511111 1009.20888889 691.42755555 1021.72444445 642.27555555c-52.45155555-20.13866667-89.88444445-70.656-89.88444445-130.27555555zM512 651.94666667c-77.25511111 0-139.94666667-62.69155555-139.94666667-139.94666667s62.69155555-139.94666667 139.94666667-139.94666667 139.94666667 62.69155555 139.94666667 139.94666667-62.69155555 139.94666667-139.94666667 139.94666667z" fill="#ffda43" p-id="1365"></path></svg>