<?xml version="1.0" standalone="no"?><!DOCTYPE svg PUBLIC "-//W3C//DTD SVG 1.1//EN" "http://www.w3.org/Graphics/SVG/1.1/DTD/svg11.dtd"><svg t="1612084259995" class="icon" viewBox="0 0 1024 1024" version="1.1" xmlns="http://www.w3.org/2000/svg" p-id="5587" xmlns:xlink="http://www.w3.org/1999/xlink" width="200" height="200"><defs><style type="text/css"></style></defs><path d="M536.088381 85.577143c97.913905-95.914667 255.073524-94.354286 350.939429 3.510857 95.963429 97.913905 94.403048 255.097905-3.486477 351.012571a248.515048 248.515048 0 0 1-187.172571 70.924191l-7.948191-0.536381 5.071239-60.732952a187.611429 187.611429 0 0 0 147.407238-53.199239 187.270095 187.270095 0 0 0 2.608762-264.801523 187.221333 187.221333 0 0 0-264.752762-2.633143 187.806476 187.806476 0 0 0-56.32 143.189333l0.487619 7.241143-60.732953 5.12a248.807619 248.807619 0 0 1 73.898667-199.070476z" p-id="5588"></path><path d="M450.072381 232.643048L173.83619 550.936381c-39.497143 44.934095-27.989333 102.326857 17.749334 146.456381l46.104381 44.30019c45.543619 43.398095 103.375238 54.101333 149.211428 16.944762l331.410286-265.069714a30.47619 30.47619 0 0 0 2.072381-45.787429L494.201905 230.64381a30.47619 30.47619 0 0 0-44.129524 1.999238z m25.014857 64.170666l178.005333 170.861715-304.39619 243.492571c-18.846476 15.262476-43.422476 10.727619-68.85181-13.531429L233.813333 653.482667c-24.624762-23.79581-28.988952-45.519238-14.09219-62.464l255.341714-294.204953zM533.308952 105.862095L844.55619 396.336762l-41.593904 44.568381L491.715048 150.406095z" p-id="5589"></path><path d="M407.966476 500.833524a30.47619 30.47619 0 0 1 45.324191 40.618666l-2.218667 2.462477-62.244571 62.268952a30.47619 30.47619 0 0 1-45.348572-40.643048l2.243048-2.462476 62.244571-62.244571zM161.304381 728.84419a30.47619 30.47619 0 0 1 44.860952 41.106286l-2.243047 2.438095-52.199619 51.102477c-30.72 30.061714-31.548952 77.04381-2.80381 104.667428 28.135619 27.062857 75.459048 26.965333 106.788572-0.243809l3.705904-3.413334 57.904762-56.466285c54.320762-53.150476 142.140952-55.174095 195.584-3.754667a30.47619 30.47619 0 1 1-42.25219 43.934476c-28.208762-27.136-75.751619-27.111619-107.056762 0.024381l-3.681524 3.388952-57.904762 56.466286c-54.320762 53.199238-141.921524 55.393524-195.315809 3.998476-52.540952-50.468571-52.516571-133.778286-1.950477-187.733333l4.33981-4.437333 52.224-51.078096z" p-id="5590"></path></svg>