<?xml version="1.0" standalone="no"?><!DOCTYPE svg PUBLIC "-//W3C//DTD SVG 1.1//EN" "http://www.w3.org/Graphics/SVG/1.1/DTD/svg11.dtd"><svg t="1612084280417" class="icon" viewBox="0 0 1287 1024" version="1.1" xmlns="http://www.w3.org/2000/svg" p-id="5878" xmlns:xlink="http://www.w3.org/1999/xlink" width="251.3671875" height="200"><defs><style type="text/css"></style></defs><path d="M8.747886 525.1072L294.824229 8.894171l532.099657 292.571429-236.895086 426.276571-63.956114-35.518171 201.201371-362.0864-403.836343-222.032457-215.157028 388.242286 377.621943 207.6672-35.2256 64.073142z" p-id="5879"></path><path d="M481.367771 163.781486l63.751315 35.84-66.9696 118.959543 35.313371 19.134171 67.525486-119.983543 63.751314 35.869257-102.8096 182.710857-163.957028-88.795428zM46.343314 637.571657a36.571429 36.571429 0 0 1 45.641143-17.846857l3.423086 1.462857 246.345143 123.201829a36.571429 36.571429 0 0 1-29.257143 66.940343l-3.423086-1.521372-246.3744-123.172571a36.571429 36.571429 0 0 1-16.384-49.064229z" p-id="5880"></path><path d="M177.532343 682.8032l246.345143 123.172571-32.680229 65.448229-246.3744-123.172571zM1023.473371 206.730971v73.142858l-61.118171-0.029258-255.414857 493.568-64.950857-33.645714 275.8656-533.065143zM561.532343 761.066057a128.965486 128.965486 0 1 0 0 257.930972 128.965486 128.965486 0 0 0 0-257.930972z m0 73.142857a55.822629 55.822629 0 1 1 0 111.645257 55.822629 55.822629 0 0 1 0-111.645257z" p-id="5881"></path><path d="M1194.364343 145.115429H1078.418286c-40.433371 0-71.007086 35.459657-71.007086 76.507428v43.359086c0 41.047771 30.602971 76.478171 71.007086 76.478171h115.887543l4.827428-0.175543c25.336686-1.755429 46.314057-17.583543 57.519543-39.7312h8.689371V221.622857c0-41.047771-30.602971-76.478171-71.007085-76.478171z m0 73.142857l-1.199543 0.087771c-0.585143 0.117029-0.848457 0.351086-0.936229 0.877714v48.157258c0.117029 0.760686 0.585143 0.936229 2.106515 0.936228h-115.858286c2.048 0 2.165029-0.292571 2.135771-1.901714V221.622857c0-2.8672 0.4096-3.335314-2.165028-3.335314h115.9168z" p-id="5882"></path></svg>