<?xml version="1.0" standalone="no"?><!DOCTYPE svg PUBLIC "-//W3C//DTD SVG 1.1//EN" "http://www.w3.org/Graphics/SVG/1.1/DTD/svg11.dtd"><svg t="1612713959859" class="icon" viewBox="0 0 1024 1024" version="1.1" xmlns="http://www.w3.org/2000/svg" p-id="5606" xmlns:xlink="http://www.w3.org/1999/xlink" width="200" height="200"><defs><style type="text/css"></style></defs><path d="M1002.13191111 744.8576L858.5216 349.50257778h42.67804445c32.72248889 0 57.40088889-31.19786667 57.40088888-72.57884445v-101.46702222c0-41.3696-24.6784-72.56746667-57.40088888-72.56746666H719.86062222V13.69884445H499.62097778c-19.79733333 0-35.84 16.04266667-35.84 35.84s16.04266667 35.84 35.84 35.84h148.54826667v391.77102222c0 48.04835555-3.69777778 70.53084445-26.5784889 85.39022222-12.60657778 8.18062222-32.27875555 17.82897778-54.36302222 23.83644444-16.80497778 3.81155555-34.77048889 4.49422222-52.80426666-1.17191111-38.18382222-11.9808-71.65724445-49.73226667-99.80586667-111.7184 12.95928889-13.11857778 20.992-31.09546667 20.992-50.94968889v-101.46702222c0-40.01564445-32.55182222-72.57884445-72.56746667-72.57884444h-279.89333333c-40.01564445 0-72.56746667 32.5632-72.56746667 72.57884444v452.06186667c0 2.63964445 0.31857778 5.18826667 0.86471112 7.66862222-3.53848889 14.29048889-5.632 29.14986667-5.632 44.52124445 0 102.14968889 83.10328889 185.26435555 185.26435555 185.26435555 92.41031111 0 169.00551111-68.07324445 182.82951111-156.64924445 2.6624 0.62577778 5.39306667 1.04675555 8.24888889 1.04675556h260.96071111c15.94026667 88.33706667 93.21813333 155.60248889 186.08355556 155.60248889 104.35697778 0 189.24657778-84.8896 189.24657778-189.24657778-0.02275555-27.22702222-5.91644445-53.06595555-16.31573334-76.48142222zM886.90915555 174.56924445c0.01137778 0.29582222 0.01137778 0.58026667 0.01137778 0.88746666v101.46702222c0 0.3072 0 0.60302222-0.01137778 0.89884445H719.86062222v-103.24195556h167.04853333zM83.1488 320.19342222l280.7808 0.89884445v101.46702222c0 0.50062222-0.38684445 0.88746667-0.88746667 0.88746666l-280.7808-0.88746666 0.88746667-102.36586667z m107.90684445 618.7008c-62.62328889 0-113.57297778-50.94968889-113.57297778-113.57297777 0-62.63466667 50.94968889-113.58435555 113.57297778-113.58435556 62.63466667 0 113.58435555 50.94968889 113.58435555 113.58435556 0 62.62328889-50.94968889 113.57297778-113.58435555 113.57297777z m452.7104-155.60248889H382.13404445c-3.62951111 0-7.0656 0.70542222-10.36515556 1.70666667-18.47751111-82.80746667-92.42168889-144.94151111-180.71324444-144.94151111-40.67555555 0-78.21084445 13.33475555-108.8056889 35.64657778V495.03573333c0.3072 0 0.59164445 0.09102222 0.88746667 0.09102222h260.55111111c23.50648889 81.45351111 63.98862222 134.50808889 120.92302222 157.04746667 21.504 8.51057778 43.05351111 11.83288889 63.60177778 11.83288889 18.81884445 0 36.61368889-2.94684445 52.97493334-7.11111111 27.61386667-6.03022222 52.224-17.57866667 72.20337778-29.74151111 3.06062222-1.80906667 5.54097778-3.35644445 7.23626666-4.46008889 59.22133333-38.45688889 59.22133333-102.87786667 59.22133334-145.5104V349.50257778h63.13528888c0.35271111 2.26417778 0.89884445 4.52835555 1.70666667 6.7584L888.39964445 641.70666667c-18.65955555-6.16675555-38.52515555-9.6256-59.22133334-9.6256-91.32942222 0.01137778-167.75395555 65.03537778-185.41226666 151.21066666zM829.17831111 938.89422222c-64.83057778 0-117.56657778-52.736-117.56657778-117.56657777s52.736-117.56657778 117.56657778-117.56657778c47.616 0 88.50773333 28.58097778 106.97386667 69.38168888l0.65991111 1.80906667c0.36408889 1.00124445 0.91022222 1.86595555 1.35395556 2.81031111 5.41582222 13.50542222 8.57884445 28.14862222 8.57884444 43.56551112-0.01137778 64.83057778-52.74737778 117.56657778-117.56657778 117.56657777z" p-id="5607"></path></svg>