<?xml version="1.0" standalone="no"?><!DOCTYPE svg PUBLIC "-//W3C//DTD SVG 1.1//EN" "http://www.w3.org/Graphics/SVG/1.1/DTD/svg11.dtd"><svg t="1612713952638" class="icon" viewBox="0 0 1024 1024" version="1.1" xmlns="http://www.w3.org/2000/svg" p-id="5462" xmlns:xlink="http://www.w3.org/1999/xlink" width="200" height="200"><defs><style type="text/css"></style></defs><path d="M725.03751111 1018.45902222c-4.67626667 0-9.38666667-0.50062222-14.06293333-1.536-21.95911111-4.82417778-39.57191111-20.33208889-47.14951111-41.49475555l-0.01137778-0.01137778-112.0256-313.21884444-96.07395556 90.85155555 20.52551112 149.41297778c2.70791111 19.7632-4.01635555 40.0384-17.9768889 54.26062222l-40.73244444 41.46062222c-14.01742222 14.30186667-33.53031111 21.21955555-53.41866666 19.01226667-19.93386667-2.23004445-37.41013333-13.27786667-47.96871112-30.32177778l-100.4544-162.24711111-181.248-123.5968c-15.88337778-10.82026667-26.08924445-27.98933333-28.00071111-47.12675555-1.92284445-19.11466667 4.68764445-37.97902222 18.11342223-51.73475556l40.4935111-41.51751111c15.33724445-15.73546667 37.34186667-22.58488889 58.94826667-18.35235556l155.27253333 30.57208889 91.77315556-102.07004444-320.56888889-118.784c-20.70755555-7.66862222-35.9424-25.11075555-40.7552-46.66026667-4.82417778-21.54951111 1.54737778-43.8272 17.02115556-59.57404445l81.44213333-82.96675555c15.30311111-15.55342222 37.18257778-22.39146667 58.58417778-18.23857778l422.90062222 82.10204445 134.26915556-134.32604445c55.9104-56.54755555 113.37955555-86.51662222 166.03591111-86.51662222h0.28444444c34.58844445 0.06826667 65.70666667 13.19822222 90.0096 37.97902222 17.39662222 17.64693333 97.28 113.41368889-46.23928889 259.59537778L797.74151111 439.62595555l72.66986667 419.76035556c3.53848889 20.53688889-3.06062222 41.63128889-17.63555556 56.49066667l-81.62417777 83.13742222c-12.37902222 12.60657778-28.93368889 19.44462222-46.11413334 19.44462222z m-642.49173333-372.16711111l175.19502222 119.44391111a64.29468445 64.29468445 0 0 1 18.60266667 19.41048889l96.29013333 155.5456 31.47093333-32.02844444-20.55964444-149.58364445c-2.84444445-20.70755555 4.51697778-41.61991111 19.70631111-55.96728889l107.16728889-101.34186666c15.96302222-15.10968889 38.25208889-21.11715555 59.66506666-15.95164445 21.37884445 5.10862222 38.54791111 20.51413333 45.95484445 41.22168889l111.85493333 312.77511111 70.58773334-71.8848-72.66986667-419.79448889c-3.59537778-20.75306667 3.16302222-42.02951111 18.05653333-56.91164444l138.77475556-138.72924444c62.96462222-64.12515555 80.27022222-123.27822222 46.04586666-157.96906667-10.79751111-11.00231111-23.40408889-16.32711111-38.59342222-16.36124445h-0.13653333c-32.43804445 0-73.17048889 23.1424-114.74488889 65.18328889L638.00888889 280.62151111c-15.30311111 15.28035555-37.10293333 21.94773333-58.25422222 17.79484444l-422.78684445-82.0679111-70.54222222 71.85066666 320.06826667 118.59057778a64.78279111 64.78279111 0 0 1 40.43662222 45.28355556 64.75093333 64.75093333 0 0 1-14.73422222 58.88l-101.95626667 113.42506666c-15.17795555 16.896-38.47964445 24.63288889-60.76871111 20.2752l-155.45457778-30.60622222-31.47093333 32.24462222z" p-id="5463"></path></svg>