<?xml version="1.0" standalone="no"?><!DOCTYPE svg PUBLIC "-//W3C//DTD SVG 1.1//EN" "http://www.w3.org/Graphics/SVG/1.1/DTD/svg11.dtd"><svg t="1612713996310" class="icon" viewBox="0 0 1150 1024" version="1.1" xmlns="http://www.w3.org/2000/svg" p-id="1004" xmlns:xlink="http://www.w3.org/1999/xlink" width="224.609375" height="200"><defs><style type="text/css"></style></defs><path d="M1059.03469199 889.11310833h-74.08516099V712.56357233c0-73.758755-60.004356-133.763111-133.76311101-133.763111h-74.520369V386.91889733c0-42.732023-34.76227-77.485227-77.49429399-77.485227H322.607701V78.81856034c0-42.732023-34.76227-77.485227-77.49429401-77.485227h-169.731271C59.07995599 1.33333334 45.86956799 14.54372133 45.86956799 30.85496933s13.210388 29.521636 29.521635 29.521635h169.73127101c10.172996 0 18.460089 8.268959 18.460089 18.45102201V471.51252734C145.94936299 505.69451933 59.660233 614.23367733 59.660233 742.73802033c0 155.822736 126.772576 282.595313 282.60438 282.595313 155.822736 0 282.595313-126.772576 282.59531199-282.595313 0-37.083381-7.371342-72.425929-20.40945999-104.90335399H717.631846V808.52702234c-45.415809 10.671672-79.434597 51.291122-79.434597 99.91659199 0 56.72216 46.150223 102.854249 102.872382 102.854249s102.854249-46.141156 102.85424899-102.854249c0-44.155518-28.107208-81.583439-67.257829-96.13572V637.83466634h74.520369c41.199727 0 74.728907 33.520113 74.72890701 74.72890599v176.549536h-3.681138c-16.302181 0-29.512569 13.219455-29.51256801 29.521635 0 16.302181 13.219455 29.512569 29.51256801 29.512569h136.80050299c16.302181 0 29.521636-13.219455 29.52163601-29.512569 0-16.302181-13.219455-29.521636-29.52163601-29.521635z m-317.96506099 63.15055001c-24.163132 0-43.838178-19.656912-43.838178-43.82004401s19.665979-43.820044 43.838178-43.82004499 43.820044 19.656912 43.82004499 43.82004499-19.656912 43.820044-43.82004499 43.82004401z m-398.81408501 14.03547099c-123.272776 0-223.570175-100.288333-223.57017499-223.561109 0-123.272776 100.288333-223.570175 223.57017499-223.57017499 123.263709 0 223.561108 100.288333 223.56110801 223.57017499 0 123.272776-100.288333 223.561108-223.56110801 223.561109z m229.744694-387.498668c-51.309255-71.691515-135.059669-118.66682-229.744694-118.66681999-6.627861 0-13.128786 0.54401-19.64784499 0.997353v-92.66311901h376.564056c10.172996 0 18.460089 8.268959 18.460089 18.451022v191.881564H572.00023999z" p-id="1005"></path></svg>