<?xml version="1.0" standalone="no"?><!DOCTYPE svg PUBLIC "-//W3C//DTD SVG 1.1//EN" "http://www.w3.org/Graphics/SVG/1.1/DTD/svg11.dtd"><svg t="1612084328484" class="icon" viewBox="0 0 1194 1024" version="1.1" xmlns="http://www.w3.org/2000/svg" p-id="7048" xmlns:xlink="http://www.w3.org/1999/xlink" width="233.203125" height="200"><defs><style type="text/css"></style></defs><path d="M1092.181333 7.168c50.631111 0 92.558222 39.367111 95.288889 88.974222l0.142222 5.176889v141.937778c0 50.289778-40.192 91.306667-90.225777 93.980444l-5.205334 0.142223h-66.275555v-71.111112h66.275555c12.430222 0 22.641778-9.045333 24.149334-20.195555l0.170666-2.844445v-141.937777c0-11.434667-9.244444-21.333333-21.248-22.812445l-3.072-0.199111H102.485333c-12.430222 0-22.641778 9.073778-24.149333 20.195556l-0.170667 2.844444v141.937778c0 11.434667 9.244444 21.361778 21.248 22.840889l3.072 0.170666h27.989334v71.111112h-27.989334c-50.631111 0-92.558222-39.338667-95.288889-88.974223l-0.142222-5.148444v-141.937778C7.054222 51.029333 47.217778 10.012444 97.28 7.310222l5.205333-0.142222h989.696z" p-id="7049"></path><path d="M847.416889 30.890667l67.925333 21.048889-260.664889 841.784888H7.68L274.915556 30.890667l67.925333 21.048889L104.163556 822.613333h498.062222z" p-id="7050"></path><path d="M970.353778 36.181333l67.925333 21.048889-293.717333 949.674667H125.838222v-71.111111l566.243556-0.028445z" p-id="7051"></path><path d="M433.038222 561.777778c-23.125333 0-43.861333 16.611556-50.289778 38.485333-8.391111 29.013333 11.093333 58.481778 42.723556 58.481778 23.125333 0 43.889778-16.64 50.261333-38.513778 8.504889-29.013333-11.093333-58.453333-42.695111-58.453333z m-7.566222 25.884444c17.976889 0 29.781333 17.863111 25.571556 32.483556-2.247111 7.68-8.590222 12.743111-18.005334 12.743111-17.92 0-29.866667-17.92-25.543111-32.625778 2.190222-7.566222 8.533333-12.629333 17.976889-12.629333zM562.346667 96.312889c-23.125333 0-43.804444 16.554667-50.261334 38.4-8.476444 29.070222 11.036444 58.595556 42.666667 58.595555 23.153778 0 43.889778-16.696889 50.289778-38.570666 8.476444-29.013333-11.093333-58.424889-42.723556-58.424889z m-7.594667 25.884444c18.005333 0 29.838222 17.92 25.571556 32.540445-2.275556 7.651556-8.590222 12.686222-18.005334 12.686222-17.92 0-29.866667-17.92-25.543111-32.625778 2.190222-7.537778 8.533333-12.629333 17.976889-12.629333zM745.045333 41.813333a35.555556 35.555556 0 0 1 67.697778 21.504l-1.109333 3.470223-77.568 206.876444a35.555556 35.555556 0 0 1-67.697778-21.504l1.109333-3.470222 77.568-206.876445z" p-id="7052"></path><path d="M243.399111 457.272889a35.555556 35.555556 0 0 1 68.693333 18.033778l-0.938666 3.527111-56.519111 177.550222 3.072 1.706667a82.119111 82.119111 0 0 1 39.025777 54.613333l0.768 4.209778h155.363556l1.564444-2.673778c19.029333-31.431111 51.370667-55.694222 86.471112-64.739556l2.56-0.625777 45.795555-146.119111a35.555556 35.555556 0 0 1 41.045333-24.206223l3.527112 0.910223c17.550222 5.489778 27.818667 23.381333 24.206222 41.016888l-0.910222 3.527112-60.387556 192.739555h-26.112c-22.954667 0-49.806222 19.2-59.306667 42.012445l-1.564444 4.323555-7.793778 24.974222H211.456l14.392889-46.165333c4.892444-15.672889 0.085333-24.007111-13.368889-25.031111l-3.015111-0.113778h-48.64l82.574222-259.470222zM382.577778 43.064889a35.555556 35.555556 0 0 1 68.465778 18.972444l-0.995556 3.498667-51.712 155.164444a35.555556 35.555556 0 0 1-68.437333-18.972444l0.967111-3.527111 51.740444-155.136z" p-id="7053"></path><path d="M479.914667 240.412444c-94.549333 4.636444-172.231111 64.881778-168.305778 141.653334 3.925333 76.686222 87.324444 128.967111 181.788444 124.330666 94.549333-4.636444 172.259556-64.881778 168.334223-141.653333-3.84-74.808889-83.285333-126.407111-174.933334-124.586667l-6.883555 0.256z m3.498666 71.025778c59.648-2.929778 105.699556 25.941333 107.292445 56.945778 1.592889 30.890667-41.187556 64.056889-100.778667 66.986667-59.648 2.929778-105.699556-25.941333-107.292444-56.945778-1.536-29.781333 38.200889-61.724444 94.435555-66.56l6.343111-0.426667z" p-id="7054"></path></svg>