<?xml version="1.0" standalone="no"?><!DOCTYPE svg PUBLIC "-//W3C//DTD SVG 1.1//EN" "http://www.w3.org/Graphics/SVG/1.1/DTD/svg11.dtd"><svg t="1612084303625" class="icon" viewBox="0 0 1024 1024" version="1.1" xmlns="http://www.w3.org/2000/svg" p-id="6464" xmlns:xlink="http://www.w3.org/1999/xlink" width="200" height="200"><defs><style type="text/css"></style></defs><path d="M305.842605 188.868465L699.249116 19.384558l81.681861 188.034977-54.605396 23.718698-58.058418-133.59628-338.872558 146.003349zM817.152 269.693023c61.392372 0 111.568372 49.652093 114.235535 111.211163l0.095256 5.167628v109.782326h-59.534884v-109.782326c0-30.053209-22.861395-54.700651-51.104744-56.701023l-3.691163-0.142884H137.311256c-28.672 0-52.724093 23.409116-54.676837 52.938419l-0.11907 3.905488v516.667535c0 30.005581 22.861395 54.676837 51.08093 56.677209l3.714977 0.142884h679.81693c28.672 0 52.724093-23.409116 54.676837-52.938419l0.142884-3.881674v-113.163907h59.534884v113.163907c0 62.178233-48.509023 113.521116-109.258419 116.235907l-5.096186 0.11907H137.311256c-61.416186 0-111.568372-49.652093-114.235535-111.211163l-0.095256-5.143814V386.071814C22.980465 323.869767 71.44186 272.550698 132.238884 269.812093l5.072372-0.11907h679.840744z" p-id="6465"></path><path d="M972.91907 473.183256H599.706791c-63.106977 0-114.354605 52.46214-114.354605 116.378791v109.663255c0 63.916651 51.223814 116.378791 114.354605 116.378791h373.212279c16.431628 0 29.767442-13.335814 29.767442-29.767442V502.950698c0-16.431628-13.335814-29.767442-29.767442-29.767442z m-29.791256 59.534884v223.327255H599.706791c-29.93414 0-54.819721-25.48093-54.819721-56.820093v-109.663255l0.142883-3.881675c1.952744-29.529302 26.004837-52.938419 54.676838-52.938419l343.421023-0.023813z" p-id="6466"></path><path d="M634.665674 593.824744a40.84093 40.84093 0 1 0 0 81.681861 40.84093 40.84093 0 0 0 0-81.681861z m0 22.146977a18.693953 18.693953 0 1 1 0 37.387907 18.693953 18.693953 0 0 1 0-37.387907z" p-id="6467"></path></svg>