<?xml version="1.0" standalone="no"?><!DOCTYPE svg PUBLIC "-//W3C//DTD SVG 1.1//EN" "http://www.w3.org/Graphics/SVG/1.1/DTD/svg11.dtd"><svg t="1612713767495" class="icon" viewBox="0 0 1024 1024" version="1.1" xmlns="http://www.w3.org/2000/svg" p-id="3554" xmlns:xlink="http://www.w3.org/1999/xlink" width="200" height="200"><defs><style type="text/css"></style></defs><path d="M198.224 448a16 16 0 0 0-15.792 13.376l-74.672 448A16 16 0 0 0 123.552 928h776.896a16 16 0 0 0 15.792-18.624l-74.672-448A16 16 0 0 0 825.76 448H198.24z m0-96H825.76a112 112 0 0 1 110.48 93.6l74.672 448A112 112 0 0 1 900.448 1024H123.552a112 112 0 0 1-110.48-130.4l74.672-448A112 112 0 0 1 198.224 352zM352 256a48 48 0 0 1-96 0c0-141.392 114.608-256 256-256s256 114.608 256 256a48 48 0 0 1-96 0c0-88.368-71.632-160-160-160s-160 71.632-160 160z m-32 480h384a48 48 0 0 0 0-96H320a48 48 0 0 0 0 96z" p-id="3555"></path></svg>