<?xml version="1.0" standalone="no"?><!DOCTYPE svg PUBLIC "-//W3C//DTD SVG 1.1//EN" "http://www.w3.org/Graphics/SVG/1.1/DTD/svg11.dtd"><svg t="1612713786287" class="icon" viewBox="0 0 1024 1024" version="1.1" xmlns="http://www.w3.org/2000/svg" p-id="3842" xmlns:xlink="http://www.w3.org/1999/xlink" width="200" height="200"><defs><style type="text/css"></style></defs><path d="M837.079365 812.698413a48.761905 48.761905 0 0 1 97.52381 0v87.673904a97.52381 97.52381 0 0 1-151.617016 81.156064l-90.973461-60.65981-93.96419 68.347937a146.285714 146.285714 0 0 1-172.097016 0l-93.947936-68.347937-90.989715 60.65981A97.52381 97.52381 0 0 1 89.396825 900.372317V146.285714a146.285714 146.285714 0 0 1 146.285715-146.285714h552.63492a146.285714 146.285714 0 0 1 146.285715 146.285714v503.873016a48.761905 48.761905 0 0 1-97.52381 0V146.285714a48.761905 48.761905 0 0 0-48.761905-48.761904H235.68254a48.761905 48.761905 0 0 0-48.761905 48.761904v754.086603l90.97346-60.643555a97.52381 97.52381 0 0 1 111.453461 2.275555l93.96419 68.331683a48.761905 48.761905 0 0 0 57.376508 0l93.947936-68.331683a97.52381 97.52381 0 0 1 111.469715-2.275555L837.079365 900.372317V812.698413zM349.460317 357.587302a48.761905 48.761905 0 0 1 0-97.52381h325.079366a48.761905 48.761905 0 0 1 0 97.52381H349.460317z m0 162.539682a48.761905 48.761905 0 0 1 0-97.523809h162.539683a48.761905 48.761905 0 0 1 0 97.523809H349.460317z m325.079366 0a48.761905 48.761905 0 1 1 0-97.523809 48.761905 48.761905 0 0 1 0 97.523809z" p-id="3843"></path></svg>