<?xml version="1.0" standalone="no"?><!DOCTYPE svg PUBLIC "-//W3C//DTD SVG 1.1//EN" "http://www.w3.org/Graphics/SVG/1.1/DTD/svg11.dtd"><svg t="1612713779973" class="icon" viewBox="0 0 1170 1024" version="1.1" xmlns="http://www.w3.org/2000/svg" p-id="3698" xmlns:xlink="http://www.w3.org/1999/xlink" width="228.515625" height="200"><defs><style type="text/css"></style></defs><path d="M585.142857 289.993143A182.272 182.272 0 0 1 713.142857 237.714286c100.992 0 182.857143 81.865143 182.857143 182.857143s-81.865143 182.857143-182.857143 182.857142a54.857143 54.857143 0 0 1 0-109.714285 73.142857 73.142857 0 1 0-73.142857-73.142857c0 100.992-81.865143 182.857143-182.857143 182.857142s-182.857143-81.865143-182.857143-182.857142 81.865143-182.857143 182.857143-182.857143a182.272 182.272 0 0 1 128 52.278857zM54.857143 1024a54.857143 54.857143 0 0 1 0-109.714286h1060.571428a54.857143 54.857143 0 0 1 0 109.714286H54.857143zM128 0h914.285714a128 128 0 0 1 128 128v585.142857a128 128 0 0 1-128 128H128a128 128 0 0 1-128-128V128a128 128 0 0 1 128-128z m0 109.714286a18.285714 18.285714 0 0 0-18.285714 18.285714v585.142857a18.285714 18.285714 0 0 0 18.285714 18.285714h914.285714a18.285714 18.285714 0 0 0 18.285715-18.285714V128a18.285714 18.285714 0 0 0-18.285715-18.285714H128z m329.142857 384a73.142857 73.142857 0 1 0 0-146.285715 73.142857 73.142857 0 0 0 0 146.285715z" p-id="3699"></path></svg>