<?xml version="1.0" standalone="no"?><!DOCTYPE svg PUBLIC "-//W3C//DTD SVG 1.1//EN" "http://www.w3.org/Graphics/SVG/1.1/DTD/svg11.dtd"><svg t="1612713799305" class="icon" viewBox="0 0 1058 1024" version="1.1" xmlns="http://www.w3.org/2000/svg" p-id="4130" xmlns:xlink="http://www.w3.org/1999/xlink" width="206.640625" height="200"><defs><style type="text/css"></style></defs><path d="M604.0576 563.2H307.2v324.266667a34.133333 34.133333 0 0 0 34.133333 34.133333h580.266667a34.133333 34.133333 0 0 0 34.133333-34.133333V136.533333a34.133333 34.133333 0 0 0-34.133333-34.133333H341.333333a34.133333 34.133333 0 0 0-34.133333 34.133333v153.6a51.2 51.2 0 0 1-102.4 0V136.533333a136.533333 136.533333 0 0 1 136.533333-136.533333h580.266667a136.533333 136.533333 0 0 1 136.533333 136.533333v750.933334a136.533333 136.533333 0 0 1-136.533333 136.533333H341.333333a136.533333 136.533333 0 0 1-136.533333-136.533333V563.2H51.2a51.2 51.2 0 0 1 0-102.4h552.8576l-83.456-125.201067a51.2 51.2 0 1 1 85.1968-56.797866L761.275733 512l-155.477333 233.198933a51.2 51.2 0 1 1-85.1968-56.797866L604.0576 563.2z" p-id="4131"></path></svg>