<?xml version="1.0" standalone="no"?><!DOCTYPE svg PUBLIC "-//W3C//DTD SVG 1.1//EN" "http://www.w3.org/Graphics/SVG/1.1/DTD/svg11.dtd"><svg t="1612713805629" class="icon" viewBox="0 0 1129 1024" version="1.1" xmlns="http://www.w3.org/2000/svg" p-id="4274" xmlns:xlink="http://www.w3.org/1999/xlink" width="220.5078125" height="200"><defs><style type="text/css"></style></defs><path d="M247.172414 418.992552V900.413793a17.655172 17.655172 0 0 0 17.655172 17.655173h388.413793V723.862069a88.275862 88.275862 0 0 0-176.551724 0v70.62069a52.965517 52.965517 0 0 1-105.931034 0v-70.62069c0-107.255172 86.951724-194.206897 194.206896-194.206897s194.206897 86.951724 194.206897 194.206897v194.206897h105.931034a17.655172 17.655172 0 0 0 17.655173-17.655173V418.992552l-85.451035 25.63531a194.206897 194.206897 0 0 1-111.580689 0l-95.390897-28.601379a88.275862 88.275862 0 0 0-50.740966 0l-95.373241 28.601379a194.206897 194.206897 0 0 1-111.616 0L247.172414 418.992552z m-105.931035 15.201103l-33.35062 11.776A70.62069 70.62069 0 0 1 14.830345 367.192276L61.192828 102.276414A123.586207 123.586207 0 0 1 182.907586 0h764.080552a123.586207 123.586207 0 0 1 121.732414 102.276414l46.362482 264.915862a70.62069 70.62069 0 0 1-93.060413 78.777379L988.689655 434.193655V900.413793a123.586207 123.586207 0 0 1-123.586207 123.586207H264.827586a123.586207 123.586207 0 0 1-123.586207-123.586207V434.193655z m859.10069-108.226207L964.413793 120.567172A17.655172 17.655172 0 0 0 947.023448 105.931034H182.925241a17.655172 17.655172 0 0 0-17.390344 14.618483L129.57131 325.985103l21.203862-7.485793a194.206897 194.206897 0 0 1 120.443587-2.877793l91.824551 27.542069a88.275862 88.275862 0 0 0 50.740966 0l95.373241-28.601379a194.206897 194.206897 0 0 1 111.616 0l95.373242 28.601379a88.275862 88.275862 0 0 0 50.740965 0l91.806897-27.542069a194.206897 194.206897 0 0 1 120.461241 2.877793l21.186207 7.485793z" p-id="4275"></path></svg>