<?xml version="1.0" standalone="no"?><!DOCTYPE svg PUBLIC "-//W3C//DTD SVG 1.1//EN" "http://www.w3.org/Graphics/SVG/1.1/DTD/svg11.dtd"><svg t="1612713812428" class="icon" viewBox="0 0 1024 1024" version="1.1" xmlns="http://www.w3.org/2000/svg" p-id="4418" xmlns:xlink="http://www.w3.org/1999/xlink" width="200" height="200"><defs><style type="text/css"></style></defs><path d="M736 704c71.648 0 132.288 47.088 152.672 112H928V354.112l-114.08-73.808a48 48 0 1 1 52.16-80.608L1024 301.888V832a80 80 0 0 1-80 80h-55.328c-20.384 64.912-81.024 112-152.672 112s-132.288-47.088-152.672-112h-126.656c-20.384 64.912-81.024 112-152.672 112s-132.288-47.088-152.672-112H80a80 80 0 0 1-80-80V112a112 112 0 0 1 112-112h520a112 112 0 0 1 112 112v384H832a48 48 0 0 1 0 96h-104a80 80 0 0 1-80-80V112a16 16 0 0 0-16-16H112a16 16 0 0 0-16 16v704h55.328c20.384-64.912 81.024-112 152.672-112s132.288 47.088 152.672 112h126.656c20.384-64.912 81.024-112 152.672-112zM208 240a48 48 0 0 1 96 0v304a48 48 0 0 1-96 0V240z m192 0a48 48 0 0 1 96 0v304a48 48 0 0 1-96 0V240z m-96 688a64 64 0 1 0 0-128 64 64 0 0 0 0 128z m432 0a64 64 0 1 0 0-128 64 64 0 0 0 0 128z" p-id="4419"></path></svg>