<?xml version="1.0" standalone="no"?><!DOCTYPE svg PUBLIC "-//W3C//DTD SVG 1.1//EN" "http://www.w3.org/Graphics/SVG/1.1/DTD/svg11.dtd"><svg t="1612713824330" class="icon" viewBox="0 0 1092 1024" version="1.1" xmlns="http://www.w3.org/2000/svg" p-id="4706" xmlns:xlink="http://www.w3.org/1999/xlink" width="213.28125" height="200"><defs><style type="text/css"></style></defs><path d="M51.153169 307.387238a51.153169 51.153169 0 0 1 0-102.306339h612.013569a51.153169 51.153169 0 1 1 0 102.306339H51.153169z m300.2009 409.225354H1040.114442a51.153169 51.153169 0 0 1 0 102.306338H351.354069l83.379666 125.08655a51.153169 51.153169 0 1 1-85.118874 56.745916L194.279737 767.765761l155.335124-232.985635a51.153169 51.153169 0 1 1 85.118874 56.745916L351.354069 716.612592zM878.129406 307.387238a51.153169 51.153169 0 0 1 0-102.306339H1040.114442a51.153169 51.153169 0 0 1 0 102.306339h-161.985036zM51.153169 818.91893a51.153169 51.153169 0 0 1 0-102.306338h25.576585a51.153169 51.153169 0 0 1 0 102.306338H51.153169z m586.454035-562.684862l-117.481779-176.239719a51.153169 51.153169 0 1 1 85.118874-56.745916L760.579423 256.234068l-155.335124 232.985635a51.153169 51.153169 0 1 1-85.118874-56.745915L637.607204 256.234068z" p-id="4707"></path></svg>