<?xml version="1.0" standalone="no"?><!DOCTYPE svg PUBLIC "-//W3C//DTD SVG 1.1//EN" "http://www.w3.org/Graphics/SVG/1.1/DTD/svg11.dtd"><svg t="1612713830694" class="icon" viewBox="0 0 1024 1024" version="1.1" xmlns="http://www.w3.org/2000/svg" p-id="4850" xmlns:xlink="http://www.w3.org/1999/xlink" width="200" height="200"><defs><style type="text/css"></style></defs><path d="M919.675073 425.893169c57.371552 33.188172 95.965797 95.214065 95.965797 166.260744 0 105.994223-85.937371 191.931594-191.931594 191.931594H599.789083c-105.994223 0-191.931594-85.937371-191.931595-191.931594s85.937371-191.931594 191.931595-191.931595h223.920193v-95.965797a47.982899 47.982899 0 0 0-47.982898-47.982899H151.948696a47.982899 47.982899 0 0 0-47.982899 47.982899v575.794783a47.982899 47.982899 0 0 0 47.982899 47.982899h623.777682a47.982899 47.982899 0 0 0 47.982898-47.982899v-7.389366a47.982899 47.982899 0 1 1 95.965797 0V880.051304a143.948696 143.948696 0 0 1-143.948695 143.948696H151.948696a143.948696 143.948696 0 0 1-143.948696-143.948696V304.256521a143.948696 143.948696 0 0 1 143.948696-143.948696h132.864646c1.215567-0.815709 2.463122-1.59943 3.774655-2.319173L555.500867 10.041381c38.626233-21.432361 87.296887-7.469338 108.92118 31.540759L728.831091 160.307825H775.726378a143.948696 143.948696 0 0 1 143.948695 143.948696v121.636648zM482.342941 160.307825h137.311062l-31.748685-58.507147-105.562377 58.507147zM599.789083 496.188115a95.965797 95.965797 0 1 0 0 191.931595h223.920193a95.965797 95.965797 0 1 0 0-191.931595H599.789083z m95.965797 47.982899a47.982899 47.982899 0 0 1 0 95.965797h-95.965797a47.982899 47.982899 0 0 1 0-95.965797h95.965797z" p-id="4851"></path></svg>