<?xml version="1.0" standalone="no"?><!DOCTYPE svg PUBLIC "-//W3C//DTD SVG 1.1//EN" "http://www.w3.org/Graphics/SVG/1.1/DTD/svg11.dtd"><svg t="1612714336551" class="icon" viewBox="0 0 1024 1024" version="1.1" xmlns="http://www.w3.org/2000/svg" p-id="5619" xmlns:xlink="http://www.w3.org/1999/xlink" width="200" height="200"><defs><style type="text/css"></style></defs><path d="M890.43947218 670.21763258l81.24689188-81.24689188 2.13807625-2.13807624c23.51883732-23.51883732 38.48536971-55.58997831 38.4853697-89.79919684s-12.82845613-66.2803595-38.4853697-89.79919684l-2.13807625-2.13807622-98.35150049-98.35150179-171.04609-171.04608872C544.07114227-22.51902852 289.64008415-22.51902852 131.42245157 135.69860405c-158.21763258 158.21763258-158.21763258 412.64868942 0 570.866322L405.09619456 980.23866901c23.51883732 23.51883732 55.58997831 38.48536971 89.79919683 38.48536971s66.2803595-12.82845613 89.79919683-38.48536971l2.13807624-2.13807622 96.21342425-96.21342557 55.58997962 55.58997962c27.7949898 27.7949898 62.00420704 40.62344594 98.35150049 40.62344595s70.55651198-12.82845613 98.35150178-40.62344595l8.55230366-8.55230496c53.45190337-53.45190337 53.45190337-143.2511002 0-196.70300227l-53.45190208-62.00420703z m-489.6194301 121.87033782c-10.69038119 10.69038119-21.38076109 19.24268485-29.93306605 27.7949898L191.28858366 640.28456654c-124.00841406-124.00841406-124.00841406-324.98756882 0-448.99598288 62.00420704-62.00420704 143.2511002-94.07534931 224.49799079-94.07534931S578.2803595 129.28437534 640.28456654 191.28858366l175.32224118 175.32224119c-47.03767466 47.03767466-76.9707407 57.72805456-113.31803415 72.69458693-38.48536971 14.96653238-83.38496812 34.20921723-141.11302268 91.93727307-59.86613078 59.86613078-74.83266446 106.90380544-89.79919683 147.52725138-12.82845613 36.34729346-25.65691357 68.41843574-70.55651198 113.31803417z m126.1464903 119.73226287c-17.10460861 17.10460861-49.17575089 17.10460861-66.28035952 0l-29.93306474-29.93306605c10.69038119-8.55230495 19.24268485-17.10460861 29.93306474-27.7949885 59.86613078-59.86613078 74.83266446-106.90380544 89.79919685-147.52725267 12.82845613-36.34729346 23.51883732-68.41843574 68.41843573-113.31803417 47.03767466-47.03767466 76.9707407-57.72805456 113.31803417-72.69458693 38.48536971-14.96653238 83.38496812-34.20921723 141.11302396-91.93727307l34.20921723 34.20921723c8.55230495 8.55230495 12.82845613 21.38076109 12.82845743 34.20921851 0 12.82845613-4.27615248 23.51883732-12.82845743 34.20921723L526.96653238 911.82023327z m357.0587111-49.17575089l-8.55230366 8.55230496c-21.38076109 21.38076109-55.58997831 21.38076109-74.83266447 0l-55.58997961-55.58997962 83.38496942-83.38496811 55.58997832 55.5899796c10.69038119 10.69038119 14.96653238 23.51883732 14.96653237 38.48536971 0 12.82845613-4.27615248 25.65691357-14.96653237 36.34729346z" p-id="5620"></path><path d="M595.38496812 257.56894316c6.41422871 0 10.69038119-2.13807623 14.96653367-6.41422871 8.55230495-8.55230495 8.55230495-21.38076109 0-29.93306604-68.41843574-68.41843574-171.04608871-96.21342555-267.25951427-70.55651198-10.69038119 2.13807623-17.10460861 14.96653238-14.96653366 25.65691356 2.13807623 10.69038119 14.96653238 19.24268485 25.65691356 14.96653367 81.24689188-21.38076109 166.76993623 2.13807623 224.49799208 59.86613079 6.41422871 4.27615248 10.69038119 6.41422871 17.10460862 6.41422871zM263.98317059 184.87435495c-14.96653238 10.69038119-29.93306605 21.38076109-42.76152218 34.20921722-8.55230495 8.55230495-8.55230495 21.38076109 0 29.93306605 4.27615248 4.27615248 10.69038119 6.41422871 14.96653238 6.41422871s10.69038119-2.13807623 14.96653366-6.41422871c10.69038119-10.69038119 23.51883732-21.38076109 36.34729348-29.93306605 10.69038119-6.41422871 12.82845613-19.24268485 6.4142287-29.93306475-6.41422871-6.41422871-19.24268485-10.69038119-29.93306604-4.27615247z" p-id="5621"></path></svg>