<?xml version="1.0" standalone="no"?><!DOCTYPE svg PUBLIC "-//W3C//DTD SVG 1.1//EN" "http://www.w3.org/Graphics/SVG/1.1/DTD/svg11.dtd"><svg t="1612714365063" class="icon" viewBox="0 0 1024 1024" version="1.1" xmlns="http://www.w3.org/2000/svg" p-id="6345" xmlns:xlink="http://www.w3.org/1999/xlink" width="200" height="200"><defs><style type="text/css"></style></defs><path d="M350.39151218 839.09195661c7.51667427 22.55002169 30.06669483 37.5833691 52.61671765 37.58336911H474.4166309c11.27501027 0 18.79168455-7.51667427 18.79168455-18.79168455s-7.51667427-18.79168455-18.79168455-18.79168456h-71.40840107c-7.51667427 0-15.03334741-5.63750571-16.91251712-13.15417883l-11.27501028-31.94586341c-3.75833714-9.39584285-13.15417885-15.03334741-24.42919025-11.27501141-9.39584285 3.75833714-15.03334741 15.03334741-11.27501028 24.42919026l11.27501028 31.94586339zM549.5833691 876.67532572h37.58336911c11.27501027 0 18.79168455-7.51667427 18.79168454-18.79168455s-7.51667427-18.79168455-18.79168454-18.79168456h-37.58336911c-11.27501027 0-18.79168455 7.51667427-18.79168455 18.79168456s7.51667427 18.79168455 18.79168455 18.79168455z" p-id="6346"></path><path d="M837.09614307 391.8498634c7.51667427-16.91251598 13.15417885-35.70420053 13.15417999-56.37505366v-3.75833713c0-71.40840107-58.25422222-129.66262329-129.66262443-129.6626233h-88.32091705v-1.87916856c0-39.46253767-18.79168455-73.28756963-46.97921195-95.83759134 15.03334741-9.39584285 31.94586339-15.03334741 50.73754909-15.03334741 20.67085312 0 37.5833691-16.91251598 37.5833691-37.5833691s-16.91251598-37.5833691-37.5833691-37.5833691c-54.49588509 0-103.3542656 26.30835883-135.30012899 65.77089537-62.01255936 5.63750571-108.99177017 56.37505365-108.99177131 120.26678158v1.87916856h-88.32091705c-71.40840107 0-129.66262329 58.25422222-129.66262443 129.6626233v3.75833713c0 20.67085312 5.63750571 39.46253767 13.15417999 56.37505366-60.13339079 11.27501027-107.1126016 63.89172793-107.11260274 129.66262442 0 54.49588509 33.82503197 101.47509703 82.68341248 122.14594902l93.95842275 272.47942655c15.03334741 45.10004338 58.25422222 75.16673821 107.11260274 75.1667382H662.33347641c48.85837938 0 90.20008562-30.06669483 107.11260274-75.1667382l93.95842275-272.47942655c48.85837938-18.79168455 82.68341248-67.65006507 82.68341248-122.14594902-1.87916857-65.7708965-48.85837938-118.38761301-108.99177131-129.66262442zM466.89995662 196.41634361c1.87916857-24.42919026 20.67085312-43.22087481 45.10004338-43.22087368 11.27501027 0 22.55002169 3.75833714 30.06669483 11.27501028 9.39584285 7.51667427 15.03334741 20.67085312 15.03334855 33.82503196v1.87916858c-1.87916857 24.42919026-20.67085312 43.22087481-45.10004338 43.2208748s-43.22087481-18.79168455-45.10004338-43.2208748V196.41634361z m229.25855289 693.4131621c-5.63750571 15.03334741-18.79168455 24.42919026-35.70420167 24.42918911H363.54569216c-16.91251598 0-30.06669483-9.39584285-35.70420167-24.42918911l-82.68341134-238.6543946h533.6838417l-82.68341134 238.6543946zM812.66695395 576.0083729H211.33304605c-30.06669483 0-56.37505365-24.42919026-56.37505366-56.37505365 0-30.06669483 24.42919026-56.37505365 56.37505366-56.37505366H487.57080974c20.67085312 0 37.5833691-16.91251598 37.58336911-37.5833691s-16.91251598-37.5833691-37.58336911-37.5833691h-184.15850837c-30.06669483 0-54.49588509-24.42919026-54.49588508-54.49588622v-3.758336c0-30.06669483 24.42919026-54.49588509 54.49588508-54.49588621h417.17539726c30.06669483 0 54.49588509 24.42919026 54.49588508 54.49588621v3.758336c0 30.06669483-24.42919026 54.49588509-54.49588508 54.49588622h-84.56257991c-20.67085312 0-37.5833691 16.91251598-37.5833691 37.5833691s16.91251598 37.5833691 37.5833691 37.5833691H812.66695395c30.06669483 0 56.37505365 24.42919026 56.37505366 56.37505366s-24.42919026 56.37505365-56.37505366 56.37505365z" p-id="6347"></path></svg>