<?xml version="1.0" standalone="no"?><!DOCTYPE svg PUBLIC "-//W3C//DTD SVG 1.1//EN" "http://www.w3.org/Graphics/SVG/1.1/DTD/svg11.dtd"><svg t="1612714342506" class="icon" viewBox="0 0 1024 1024" version="1.1" xmlns="http://www.w3.org/2000/svg" p-id="5764" xmlns:xlink="http://www.w3.org/1999/xlink" width="200" height="200"><defs><style type="text/css"></style></defs><path d="M852.75588108 754.53800873H171.24411892c-44.09781999 0-80.17785409 36.0800341-80.17785408 80.17785409v50.1111594c0 66.14672998 54.12005115 120.26678113 120.26678234 120.26678113h601.33390564c66.14672998 0 120.26678113-54.12005115 120.26678234-120.26678113v-50.1111594c0-44.09781999-36.0800341-80.17785409-80.17785408-80.17785409z m0 130.28901349c0 22.04890999-18.04001705 40.08892704-40.08892826 40.08892704H211.33304718c-22.04890999 0-40.08892704-18.04001705-40.08892826-40.08892704v-50.1111594h681.51176216v50.1111594zM932.93373516 622.24454997c-60.13339056 0-92.20453293 12.02667762-120.26678234 22.04891-24.05335647 10.02223237-46.10226646 18.04001705-90.20008525 18.04001704s-66.14672998-8.01778589-90.20008644-18.04001704c-28.06224942-10.02223237-60.13339056-22.04890999-120.26678113-22.04891s-92.20453293 12.02667762-120.26678113 22.04891c-24.05335647 10.02223237-46.10226646 18.04001705-90.20008644 18.04001704-46.10226646 0-66.14672998-8.01778589-90.20008525-18.04001704-28.06224942-10.02223237-60.13339056-22.04890999-120.26678234-22.04891-22.04890999 0-40.08892704 18.04001705-40.08892704 40.08892704s18.04001705 40.08892704 40.08892704 40.08892705c46.10226646 0 66.14672998 8.01778589 90.20008646 18.04001705 28.06224942 10.02223237 60.13339056 22.04890999 120.26678113 22.04890999s92.20453293-12.02667762 120.26678112-22.04890999c24.05335647-10.02223237 46.10226646-18.04001705 90.20008645-18.04001705 46.10226646 0 66.14672998 8.01778589 90.20008645 18.04001705 28.06224942 10.02223237 60.13339056 22.04890999 120.26678112 22.04890999s92.20453293-12.02667762 120.26678113-22.04890999c24.05335647-10.02223237 46.10226646-18.04001705 90.20008646-18.04001705 22.04890999 0 40.08892704-18.04001705 40.08892704-40.08892705s-18.04001705-40.08892704-40.08892704-40.08892704zM161.22188778 600.19563998h701.55622444c60.13339056 0 110.24454997-50.11115941 110.24454998-110.24454997 0-36.0800341-18.04001705-68.15117646-44.09781999-88.19563998 2.00444647-6.01333942 4.00889295-14.03112411 4.00889295-22.04891 0-14.03112411 2.00444647-144.32013759-94.20897939-244.5424552-72.16006941-78.17340761-182.40461817-116.25788818-326.72475577-116.25788818-144.32013759 0-254.56468756 40.08892704-326.72475577 118.26233466-96.21342466 100.2223176-94.20897819 230.5113311-94.20897939 244.5424552 0 8.01778589 2.00444647 14.03112411 4.00889295 22.04890999C69.01735485 423.80436002 50.9773378 455.87550239 50.9773378 491.95553648c0 58.1289441 50.11115941 108.2401035 110.24454998 108.2401035z m82.18230055-410.9115028c58.1289441-60.13339056 148.32903054-92.20453293 268.59581167-92.20453292s210.46686757 30.06669588 268.59581167 92.20453292c76.16896114 80.17785409 72.16006941 186.41351111 72.16006941 186.41351112v2.00444526H512l-340.75588108-2.00444526s-4.00889295-106.23565702 72.16006941-186.41351112z m-82.18230055 270.60025815h701.55622444c16.03557057 0 30.06669588 14.03112411 30.0666959 30.06669468s-14.03112411 30.06669588-30.0666959 30.06669588h-701.55622444c-16.03557057 0-30.06669588-14.03112411-30.0666959-30.06669588s14.03112411-30.06669588 30.0666959-30.06669468z" p-id="5765"></path><path d="M606.20897819 187.27969072c50.11115941 10.02223237 90.20008645 30.06669588 116.25788938 58.12894409 6.01333942 6.01333942 12.02667762 14.03112411 18.04001706 22.04890999 4.00889295 6.01333942 10.02223237 8.01778589 16.03557057 8.01778468 4.00889295 0 8.01778589-2.00444647 12.02667885-4.00889173 10.02223237-6.01333942 12.02667762-18.04001705 6.0133382-28.06224942-6.01333942-10.02223237-14.03112411-20.04446352-22.04891-28.06224942-32.07114115-34.07558762-80.17785409-58.1289441-138.30679816-70.15562172-10.02223237-2.00444647-22.04890999 4.00889295-24.05335648 16.03557059-2.00444647 14.03112411 6.01333942 24.05335647 16.03557058 26.05780294zM512 179.26190482h36.0800341c10.02223237 0 20.04446352-8.01778589 20.04446351-18.04001704 0-12.02667762-8.01778589-20.04446352-18.04001704-22.04891h-36.0800341c-12.02667762 0-20.04446352 8.01778589-20.04446352 20.04446352s6.01333942 20.04446352 18.04001705 20.04446352z" p-id="5766"></path></svg>