<?xml version="1.0" standalone="no"?><!DOCTYPE svg PUBLIC "-//W3C//DTD SVG 1.1//EN" "http://www.w3.org/Graphics/SVG/1.1/DTD/svg11.dtd"><svg t="1612714348460" class="icon" viewBox="0 0 1024 1024" version="1.1" xmlns="http://www.w3.org/2000/svg" p-id="5909" xmlns:xlink="http://www.w3.org/1999/xlink" width="200" height="200"><defs><style type="text/css"></style></defs><path d="M971.01821573 679.07569314c-36.0800341-36.0800341-92.20453293-44.09781999-136.30235291-24.05335646l-52.11560468-52.11560467c72.16006941-142.31569113 48.10671294-320.71141755-72.1600694-438.97375221l-124.27567407-124.27567407-6.01333821-6.01333942C514.00444647-20.47608483 361.66652299 9.59060983 191.28858245 181.97299685c-68.15117646 68.15117646-120.26678113 144.32013759-150.3334758 212.47131405-34.07558762 80.17785409-30.06669588 146.32458407 8.01778468 184.40906464l122.27122759 122.2712276c74.16451467 74.16451467 172.38238701 112.24899645 268.59581167 112.24899645 58.1289441 0 116.25788818-14.03112411 170.37794055-40.08892825l52.11560587 52.11560588c-22.04890999 46.10226646-12.02667762 100.2223176 24.05335647 136.3023517 22.04890999 22.04890999 52.11560467 36.0800341 84.18674703 36.0800353s62.13783703-12.02667762 84.18674583-36.0800353c20.04446352-20.04446352 28.06224942-50.11115941 24.05335647-88.19563877 38.08448057 4.00889295 68.15117646-4.00889295 88.19563997-24.05335646 22.04890999-22.04890999 36.0800341-52.11560467 36.08003409-84.18674703 4.00889295-32.07114115-8.01778589-62.13783703-32.07114114-86.19119352z m-865.92082558-156.34681521c-10.02223237-10.02223237-14.03112411-42.09337351 10.02223116-96.21342588 24.05335647-60.13339056 72.16006941-126.28012054 132.29345997-186.41351111 102.22676409-102.22676409 204.45352816-150.33347701 256.56913283-150.33347701 12.02667762 0 22.04890999 2.00444647 28.06224941 8.01778588 28.06224942 28.06224942-14.03112411 156.34681522-142.31569111 282.62693578-60.13339056 60.13339056-126.28012054 108.2401035-186.41351112 132.29345997-56.12449761 24.05335647-88.19563998 20.04446352-98.21787114 10.02223237z m549.21830098 122.2712276c-30.06669588 30.06669588-66.14672998 52.11560467-102.22676409 68.15117524-108.2401035 42.09337351-236.52467052 20.04446352-322.71586282-68.15117524l-42.0933735-42.09337352c16.03557057-4.00889295 30.06669588-8.01778589 48.10671172-16.03557179 68.15117646-28.06224942 144.32013759-82.18230055 212.47131405-150.3334758 96.21342466-96.21342466 148.32903054-186.41351111 166.3690476-258.57358052l42.0933735 42.09337352c86.1911935 86.1911935 108.2401035 214.47576052 66.14672998 322.71586402-16.03557057 38.08448057-38.08448057 72.16006941-68.15117644 102.22676409z m260.57802698 148.32903053s-6.01333942 4.00889295-24.05335647 2.00444527c-24.05335647-2.00444647-48.10671294 6.01333942-64.14228351 24.05335646-16.03557057 16.03557057-26.05780294 40.08892704-22.04890999 64.14228352v10.02223236c0 10.02223237-2.00444647 14.03112411-2.00444648 14.0311241-16.03557057 16.03557057-42.09337351 16.03557057-56.12449761 0-14.03112411-14.03112411-16.03557057-34.07558762-6.01333942-50.1111594 16.03557057-24.05335647 14.03112411-56.12449761-8.0177859-76.16896114l-52.11560466-52.11560468c10.02223237-8.01778589 20.04446352-18.04001705 30.06669467-26.05780293 10.02223237-10.02223237 18.04001705-20.04446352 26.05780294-30.06669589l52.11560588 52.11560589c20.04446352 20.04446352 52.11560467 24.05335647 76.16896114 8.01778467 16.03557057-10.02223237 36.0800341-8.01778589 50.11115941 6.01333942 8.01778589 8.01778589 12.02667762 18.04001705 12.02667763 28.06224941 0 8.01778589-4.00889295 18.04001705-12.02667763 26.05780294z" p-id="5910"></path><path d="M622.24454997 556.80446555c-8.01778589 12.02667762-16.03557057 22.04890999-26.05780294 32.07114115-8.01778589 8.01778589-8.01778589 20.04446352 0 28.06224941 4.00889295 4.00889295 10.02223237 6.01333942 14.03112411 6.01333942s10.02223237-2.00444647 14.03112531-6.01333942c12.02667762-12.02667762 22.04890999-24.05335647 30.06669468-36.08003409 6.01333942-10.02223237 4.00889295-22.04890999-6.01333943-28.06224942-6.01333942-6.01333942-18.04001705-4.00889295-26.05780173 4.00889295zM622.24454997 272.17308331c-8.01778589 6.01333942-10.02223237 20.04446352-4.00889295 28.06224819 44.09781999 58.1289441 56.12449761 132.29345997 32.07114116 202.4490829-4.00889295 10.02223237 2.00444647 22.04890999 12.02667883 26.05780173 2.00444647 0 4.00889295 2.00444647 6.01333821 2.00444647 8.01778589 0 16.03557057-6.01333942 18.04001826-14.03112409 26.05780294-82.18230055 12.02667762-170.37794053-38.08448178-238.52911701-6.01333942-10.02223237-18.04001705-12.02667762-26.05780173-6.01333819zM255.43086595 416.4932209c32.07114115 0 76.16896114-26.05780294 110.24454998-60.13339056 24.05335647-24.05335647 42.09337351-50.11115941 52.11560588-72.16006941 16.03557057-40.08892704 4.00889295-60.13339056-4.00889295-68.15117646-30.06669588-32.07114115-94.20897819 0-142.31569111 48.10671294-46.10226646 46.10226646-78.17340761 110.24454997-48.10671294 142.31569112 8.01778589 6.01333942 20.04446352 10.02223237 32.07114114 10.02223237z m44.09781999-126.28012055c36.0800341-36.0800341 68.15117646-48.10671294 80.17785409-48.10671294h4.00889295c4.00889295 6.01333942-6.01333942 44.09781999-48.10671172 86.19119351-42.09337351 42.09337351-78.17340761 52.11560467-86.19119351 48.10671294-2.00444647-8.01778589 8.01778589-44.09781999 50.11115819-86.19119351z" p-id="5911"></path></svg>