<?xml version="1.0" standalone="no"?><!DOCTYPE svg PUBLIC "-//W3C//DTD SVG 1.1//EN" "http://www.w3.org/Graphics/SVG/1.1/DTD/svg11.dtd"><svg t="1612714360320" class="icon" viewBox="0 0 1024 1024" version="1.1" xmlns="http://www.w3.org/2000/svg" p-id="6200" xmlns:xlink="http://www.w3.org/1999/xlink" width="200" height="200"><defs><style type="text/css"></style></defs><path d="M892.84480812 273.47088421h-80.1778553V251.42197422c24.05335647-26.05780294 40.08892704-60.13339056 40.08892826-98.21787234 0-38.08448057-14.03112411-72.16006941-42.09337353-100.22231761-26.05780294-26.05780294-62.13783703-40.08892704-98.21787234-40.08892704H215.34193891c-40.08892704 0-78.17340761 16.03557057-106.23565702 44.09781999-26.05780294 28.06224942-40.08892704 62.13783703-40.08892704 100.22231761 2.00444647 36.0800341 16.03557057 68.15117646 40.08892704 92.20453292v613.36058447c0 66.14672998 54.12005115 120.26678113 120.26678233 120.26678113h461.022661c66.14672998 0 120.26678113-54.12005115 120.26678233-120.26678113V752.53356225h80.17785409c66.14672998 0 120.26678113-54.12005115 120.26678113-120.26678112V391.73321887c2.00444647-64.14228351-52.11560467-118.26233466-118.26233465-118.26233466z m-160.35570939 481.06712452v110.24454997c0 22.04890999-18.04001705 40.08892704-40.08892704 40.08892705H231.37751071c-22.04890999 0-40.08892704-18.04001705-40.08892826-40.08892705V293.51534774c6.01333942 0 14.03112411 2.00444647 20.04446473 2.00444526h20.04446353v44.09781999c0 28.06224942 12.02667762 54.12005115 34.07558762 72.16006941 16.03557057 14.03112411 38.08448057 22.04890999 60.13339056 22.04890999 6.01333942 0 12.02667762 0 18.04001704-2.00444648 44.09781999-8.01778589 76.16896114-48.10671294 76.16896114-94.20897939v-42.09337352H712.44463521c6.01333942 0 14.03112411 0 20.04446352-2.00444526v461.02266099z m24.05335647-561.24497981c-10.02223237 12.02667762-26.05780294 20.04446352-44.09781999 20.04446353H417.79102181c-38.08448057 0-68.15117646 26.05780294-78.17340882 60.13339176-2.00444647 6.01333942-2.00444647 14.03112411-2.00444647 20.04446353v42.09337352c0 8.01778589-4.00889295 14.03112411-10.02223116 16.03557057-6.01333942 2.00444647-10.02223237 0-12.02667884-2.00444648-2.00444647-2.00444647-4.00889295-4.00889295-4.00889173-10.02223236v-44.09781999c0-6.01333942 0-14.03112411-2.00444648-20.04446352-8.01778589-34.07558762-40.08892704-60.13339056-78.1734076-60.13339057h-20.04446353c-16.03557057 0-32.07114115-6.01333942-42.09337352-18.04001704l-2.00444647-2.00444648c-10.02223237-12.02667762-16.03557057-24.05335647-16.03557179-40.08892704s6.01333942-30.06669588 16.03557179-42.09337351c12.02667762-14.03112411 30.06669588-20.04446352 48.10671172-20.04446352H712.44463521c16.03557057 0 30.06669588 6.01333942 42.09337352 18.04001704 12.02667762 12.02667762 18.04001705 26.05780294 18.04001705 42.09337352s-6.01333942 30.06669588-16.03557058 40.08892704z m176.39127996 440.97819867c0 22.04890999-18.04001705 40.08892704-40.08892704 40.08892706h-80.1778553v-320.71141635h80.1778553c22.04890999 0 40.08892704 18.04001705 40.08892704 40.08892704v240.53356225z" p-id="6201"></path><path d="M467.90218001 383.71543298c-12.02667762 0-20.04446352 8.01778589-20.04446352 20.04446352v352.7825587c0 12.02667762 8.01778589 20.04446352 20.04446352 20.04446352s20.04446352-8.01778589 20.04446352-20.04446352V403.7598965c0-10.02223237-8.01778589-20.04446352-20.04446352-20.04446352zM291.51090127 696.40906464c-12.02667762 0-20.04446352 8.01778589-20.04446352 20.04446352v40.08892704c0 12.02667762 8.01778589 20.04446352 20.04446352 20.04446352s20.04446352-8.01778589 20.04446352-20.04446352v-40.08892704c0-10.02223237-8.01778589-20.04446352-20.04446352-20.04446352zM291.51090127 469.90662649c-12.02667762 0-20.04446352 8.01778589-20.04446352 20.04446352v146.32458407c0 12.02667762 8.01778589 20.04446352 20.04446352 20.04446351s20.04446352-8.01778589 20.04446352-20.04446351v-146.32458407c0-12.02667762-8.01778589-20.04446352-20.04446352-20.04446352zM632.26678113 503.98221411c-12.02667762 0-20.04446352 8.01778589-20.04446353 20.04446351v232.51577758c0 12.02667762 8.01778589 20.04446352 20.04446353 20.04446352s20.04446352-8.01778589 20.04446352-20.04446352V524.02667762c0-10.02223237-8.01778589-20.04446352-20.04446352-20.04446351zM632.26678113 383.71543298c-12.02667762 0-20.04446352 8.01778589-20.04446353 20.04446352v40.08892704c0 12.02667762 8.01778589 20.04446352 20.04446353 20.04446352s20.04446352-8.01778589 20.04446352-20.04446352v-40.08892704c0-10.02223237-8.01778589-20.04446352-20.04446352-20.04446352z" p-id="6202"></path></svg>