<?xml version="1.0" standalone="no"?><!DOCTYPE svg PUBLIC "-//W3C//DTD SVG 1.1//EN" "http://www.w3.org/Graphics/SVG/1.1/DTD/svg11.dtd"><svg t="1612714354764" class="icon" viewBox="0 0 1024 1024" version="1.1" xmlns="http://www.w3.org/2000/svg" p-id="6054" xmlns:xlink="http://www.w3.org/1999/xlink" width="200" height="200"><defs><style type="text/css"></style></defs><path d="M995.07157219 804.64916814c-14.03112411-40.08892704-48.10671294-70.15562293-88.19563998-80.17785408-2.00444647 0-4.00889295-2.00444647-8.01778588-2.00444649l-10.02223116-24.05335646L626.25344171 89.06181837c-20.04446352-44.09781999-62.13783703-72.16006941-110.24454876-72.16006819s-90.20008645 28.06224942-110.24454997 72.16006819L133.15963836 722.46686757c-48.10671294 4.00889295-90.20008645 36.0800341-106.23565703 82.18230057-10.02223237 30.06669588-6.01333942 62.13783703 8.01778589 90.20008645 16.03557057 30.06669588 46.10226646 54.12005115 82.18230057 64.1422823 128.28456702 34.07558762 260.57802578 50.11115941 392.87148574 50.11115941s264.58691872-16.03557057 392.87148573-50.11115941c36.0800341-10.02223237 66.14672998-32.07114115 82.18230057-64.1422823 18.04001705-28.06224942 20.04446352-60.13339056 10.02223236-90.20008645zM816.67584577 732.48909873c-18.04001705 4.00889295-34.07558762 8.01778589-52.11560467 12.02667884 8.01778589-18.04001705 24.05335647-30.06669588 42.09337351-34.07558883l10.02223116 22.04890999zM586.16451467 197.30192187l42.09337351 96.21342587c-32.07114115 0-56.12449761-26.05780294-56.12449762-58.1289453 0-14.03112411 6.01333942-28.06224942 14.03112411-38.08448057z m-106.23565582-78.17340762c10.02223237-22.04890999 30.06669588-24.05335647 36.0800341-24.05335646s28.06224942 2.00444647 36.08003409 24.05335646l16.03557057 38.08448058c-24.05335647 18.04001705-38.08448057 46.10226646-38.08448056 78.17340761 0 54.12005115 44.09781999 98.21787114 98.21787113 98.21787234 6.01333942 0 10.02223237 0 14.03112531-2.00444647l148.32903055 340.75587986c-36.0800341 10.02223237-64.14228351 42.09337351-70.15562293 80.17785408-118.26233466 18.04001705-240.53356225 22.04890999-360.8003446 8.0177859 0-6.01333942 2.00444647-12.02667762 2.00444648-18.04001705 0-54.12005115-44.09781999-98.21787114-98.21787114-98.21787113h-8.0177859l224.4979929-525.16494572zM235.38640244 690.39572522c8.01778589-4.00889295 18.04001705-8.01778589 28.06224941-8.01778469 32.07114115 0 58.1289441 26.05780294 58.12894409 58.1289441 0 4.00889295 0 8.01778589-2.00444647 12.02667762-36.0800341-4.00889295-70.15562293-12.02667762-104.23121056-20.04446352l20.04446353-42.09337351z m681.51176093 166.36904759c-6.01333942 12.02667762-18.04001705 20.04446352-32.07114115 24.05335646-244.5424552 64.14228351-501.11158924 64.14228351-745.65404444 0-14.03112411-4.00889295-26.05780294-12.02667762-32.07114115-24.05335646-4.00889295-8.01778589-6.01333942-18.04001705-2.00444648-26.05780173 4.00889295-10.02223237 12.02667762-18.04001705 22.04891-24.05335647 6.01333942-4.00889295 14.03112411-6.01333942 22.04890999-6.01333942 4.00889295 0 8.01778589 0 12.02667764 2.00444647l24.05335645 6.01333943c4.00889295 2.00444647 6.01333942 2.00444647 10.02223116 2.00444646 36.0800341 8.01778589 72.16006941 16.03557057 108.2401035 20.04446353 146.32458407 22.04890999 294.65361461 20.04446352 438.97375221-4.00889295 18.04001705-2.00444647 34.07558762-6.01333942 52.11560468-10.02223236 18.04001705-4.00889295 36.0800341-8.01778589 56.12449882-12.02667763 4.00889295 0 10.02223237-2.00444647 14.0311241-4.00889295h2.00444647c14.03112411-4.00889295 28.06224942 0 38.08448058 6.01333942l2.00444646 2.00444648c6.01333942 4.00889295 12.02667762 12.02667762 14.03112411 20.04446352 2.00444647 10.02223237 0 20.04446352-4.00889295 28.0622482z" p-id="6055"></path><path d="M431.82214591 469.90662649c6.01333942 0 12.02667762-2.00444647 16.03557058-6.01333943 8.01778589-10.02223237 20.04446352-18.04001705 32.07114236-24.05335647 10.02223237-4.00889295 14.03112411-16.03557057 10.02223116-26.05780173-4.00889295-10.02223237-16.03557057-14.03112411-26.05780295-10.02223236-18.04001705 8.01778589-32.07114115 20.04446352-44.09781999 34.07558883-8.01778589 8.01778589-6.01333942 20.04446352 2.00444648 28.06224821 0 2.00444647 4.00889295 4.00889295 10.02223236 4.00889295z" p-id="6056"></path><path d="M516.00889295 658.32458407c74.16451467 0 134.29790644-60.13339056 134.29790523-134.29790645 0-66.14672998-46.10226646-120.26678113-110.24454876-132.29345875-10.02223237-2.00444647-22.04890999 6.01333942-24.05335647 16.03557058-2.00444647 10.02223237 6.01333942 22.04890999 16.03557057 24.05335646 44.09781999 8.01778589 78.17340761 46.10226646 78.17340762 92.20453171 0 52.11560467-42.09337351 94.20897819-94.20897819 94.2089794s-94.20897819-42.09337351-94.2089794-94.2089794v-8.01778467c0-12.02667762-8.01778589-20.04446352-18.04001705-22.04891-12.02667762-2.00444647-20.04446352 8.01778589-22.04890999 18.04001705v10.02223237c2.00444647 76.16896114 62.13783703 136.3023517 134.29790644 136.3023517z" p-id="6057"></path></svg>