<?xml version="1.0" standalone="no"?><!DOCTYPE svg PUBLIC "-//W3C//DTD SVG 1.1//EN" "http://www.w3.org/Graphics/SVG/1.1/DTD/svg11.dtd"><svg t="1612714320039" class="icon" viewBox="0 0 1024 1024" version="1.1" xmlns="http://www.w3.org/2000/svg" p-id="5184" xmlns:xlink="http://www.w3.org/1999/xlink" width="200" height="200"><defs><style type="text/css"></style></defs><path d="M973.0226622 449.86216297c0-128.28456702-96.21342466-232.51577757-218.48465347-248.55134815-28.06224942-108.2401035-126.28012054-188.41795758-242.53800873-188.41795759s-214.47576052 80.17785409-242.53800873 188.41795759c-122.27122759 16.03557057-218.48465226 120.26678113-218.48465347 248.55134815 0 12.02667762 0 22.04890999 2.00444647 32.07114115-2.00444647 6.01333942-2.00444647 12.02667762-2.00444647 18.04001826v50.11115819c0 254.56468756 206.45797463 461.0226622 461.0226622 461.0226622s461.0226622-206.45797463 461.0226622-461.0226622v-50.11115819c0-6.01333942 0-12.02667762-2.00444647-18.04001826 2.00444647-10.02223237 2.00444647-20.04446352 2.00444647-32.07114115z m-250.55579463-170.37794054c14.03112411 0 26.05780294 2.00444647 40.08892705 4.00889294 66.14672998 16.03557057 118.26233466 70.15562293 128.28456702 138.30679818h-40.08892704c-10.02223237-48.10671294-48.10671294-86.1911935-94.2089794-98.21787113-10.02223237-4.00889295-22.04890999-4.00889295-32.07114114-4.00889295-20.04446352 0-38.08448057 4.00889295-54.12005236 12.02667884-34.07558762 16.03557057-60.13339056 44.09781999-70.15562172 80.17785409 0 4.00889295-2.00444647 6.01333942-2.00444648 10.02223115h-40.08892704c2.00444647-14.03112411 6.01333942-26.05780294 12.02667764-38.08448057 14.03112411-34.07558762 40.08892704-62.13783703 70.15562292-80.17785409 14.03112411-8.01778589 28.06224942-14.03112411 44.09781999-18.04001704 10.02223237-4.00889295 24.05335647-6.01333942 38.08448056-6.01333942z m86.19119352 142.31569112h-170.37794055c12.02667762-36.0800341 46.10226646-62.13783703 86.19119352-62.13783704 6.01333942 0 14.03112411 0 20.04446351 2.00444648 28.06224942 8.01778589 54.12005115 30.06669588 64.14228352 60.13339056zM512 313.55981126c-22.04890999-34.07558762-50.11115941-60.13339056-84.18674703-80.1778553 12.02667762-34.07558762 46.10226646-60.13339056 84.18674703-60.13339056s72.16006941 24.05335647 84.18674703 60.13339056c-34.07558762 20.04446352-62.13783703 48.10671294-84.18674703 80.1778553z m0-220.48909994c72.16006941 0 136.3023517 46.10226646 160.35570817 110.24454997-14.03112411 2.00444647-26.05780294 6.01333942-38.08448058 12.02667762-20.04446352-48.10671294-66.14672998-82.18230055-120.26678112-82.18230055s-102.22676409 34.07558762-120.26678113 82.18230055c-12.02667762-4.00889295-26.05780294-8.01778589-38.08448056-12.02667762 20.04446352-64.14228351 84.18674703-110.24454997 156.34681522-110.24454997z m-250.55579462 190.42240405c12.02667762-4.00889295 26.05780294-4.00889295 40.08892705-4.00889294s28.06224942 2.00444647 42.0933735 6.01333942c16.03557057 4.00889295 30.06669588 10.02223237 44.09781999 18.04001704 32.07114115 18.04001705 56.12449761 46.10226646 70.15562293 80.17785409 6.01333942 12.02667762 10.02223237 26.05780294 12.02667764 38.08448057h-40.08892704c0-4.00889295-2.00444647-6.01333942-2.00444648-10.02223115-12.02667762-36.0800341-38.08448057-64.14228351-70.15562293-80.17785409-16.03557057-8.01778589-34.07558762-12.02667762-54.12005115-12.02667884-12.02667762 0-22.04890999 2.00444647-32.07114114 4.00889295-46.10226646 12.02667762-84.18674703 50.11115941-94.2089794 98.21787113h-40.08892704c8.01778589-68.15117646 58.1289441-122.27122759 124.27567407-138.30679818z m126.28012054 138.30679818h-170.37794053c10.02223237-30.06669588 34.07558762-52.11560467 66.14672998-60.13339056 6.01333942-2.00444647 14.03112411-2.00444647 20.04446352-2.00444648 38.08448057 0 72.16006941 26.05780294 84.18674703 62.13783704zM892.84480812 550.08448057c0 32.07114115-4.00889295 64.14228351-12.02667885 94.2089794-42.09337351 164.36460112-190.42240406 286.63582871-368.81812927 286.63582871s-326.72475577-122.27122759-368.81812927-286.63582871c-8.01778589-30.06669588-12.02667762-62.13783703-12.02667885-94.2089794v-48.10671294H892.84480812v48.10671294z" p-id="5185"></path><path d="M580.15117646 844.73809518c-22.04890999 6.01333942-46.10226646 8.01778589-68.15117646 8.0177859-12.02667762 0-20.04446352 8.01778589-20.04446352 20.04446352s8.01778589 20.04446352 20.04446352 20.04446352c26.05780294 0 52.11560467-2.00444647 76.16896114-8.0177859 10.02223237-2.00444647 18.04001705-14.03112411 16.03557179-24.05335646-4.00889295-12.02667762-14.03112411-18.04001705-24.05335647-16.03557058zM832.71141755 598.1911935c-10.02223237-2.00444647-22.04890999 4.00889295-24.05335646 16.03557059-20.04446352 88.19563998-80.17785409 166.36904758-162.36015465 206.45797462-10.02223237 4.00889295-14.03112411 16.03557057-8.0177859 26.05780294 4.00889295 8.01778589 10.02223237 12.02667762 18.04001705 12.02667762 2.00444647 0 6.01333942 0 8.0177859-2.00444646 92.20453293-46.10226646 160.35570817-134.29790644 182.40461816-234.52022284 2.00444647-12.02667762-4.00889295-22.04890999-14.0311241-24.05335647z" p-id="5186"></path></svg>