<?xml version="1.0" standalone="no"?><!DOCTYPE svg PUBLIC "-//W3C//DTD SVG 1.1//EN" "http://www.w3.org/Graphics/SVG/1.1/DTD/svg11.dtd"><svg t="1612714331228" class="icon" viewBox="0 0 1024 1024" version="1.1" xmlns="http://www.w3.org/2000/svg" p-id="5474" xmlns:xlink="http://www.w3.org/1999/xlink" width="200" height="200"><defs><style type="text/css"></style></defs><path d="M942.95596631 371.68875535c-14.03112411-18.04001705-36.0800341-26.05780294-60.13339056-26.05780293h-56.12449762c-12.02667762 0-24.05335647 4.00889295-36.08003409 8.01778588l2.00444525-2.00444647 10.02223237-94.20897939c6.01333942-54.12005115-32.07114115-102.22676409-86.1911935-108.2401023H712.44463521c-26.05780294-4.00889295-52.11560467 4.00889295-72.16006819 20.04446352s-34.07558762 40.08892704-36.08003409 66.14672878l-12.02667884 102.22676408v-240.53356226c0-54.12005115-44.09781999-98.21787114-98.21787114-98.21787113h-4.00889294c-54.12005115 0-98.21787114 44.09781999-98.21787114 98.21787113v104.23121056c-6.01333942-10.02223237-14.03112411-20.04446352-24.05335646-28.06224942-20.04446352-16.03557057-46.10226646-24.05335647-72.16006941-22.04891H291.51090127c-54.12005115 6.01333942-94.20897819 54.12005115-88.19563998 108.2401035l8.01778589 90.20008645h2.00444527c-8.01778589-2.00444647-16.03557057-4.00889295-24.05335527-4.00889293h-56.12449882c-22.04890999 0-44.09781999 10.02223237-60.13339056 26.05780293-14.03112411 18.04001705-22.04890999 40.08892704-18.04001705 62.13783704l62.13783704 491.08935687c8.01778589 58.1289441 58.1289441 102.22676409 116.25788817 102.22676408h543.20496276c58.1289441 0 108.2401035-44.09781999 116.2578894-102.22676408l62.13783703-491.08935687c10.02223237-24.05335647 4.00889295-46.10226646-12.02667884-62.13783704z m-160.35570817-12.02667884l-2.00444647 2.00444648c0-2.00444647 2.00444647-2.00444647 2.00444647-2.00444648z m-14.03112409 12.02667884l-2.00444649 2.00444647s2.00444647 0 2.00444649-2.00444647z m-8.0177859 14.03112411c0 2.00444647-2.00444647 2.00444647-2.00444648 4.00889295 0-2.00444647 0-2.00444647 2.00444648-4.00889295zM694.40461817 231.37751071c2.00444647-2.00444647 6.01333942-4.00889295 14.03112531-4.00889295h4.00889173c10.02223237 2.00444647 18.04001705 10.02223237 16.03557179 20.04446352l-26.05780294 226.50243815c-12.02667762 8.01778589-26.05780294 12.02667762-42.09337352 12.02667763l28.0622482-244.5424552c0-6.01333942 4.00889295-10.02223237 6.01333943-10.02223115z m16.03557057 236.5246693c-2.00444647 2.00444647-4.00889295 2.00444647-6.01333821 4.00889295 2.00444647-2.00444647 4.00889295-2.00444647 6.01333821-4.00889295zM493.95998295 79.03958721h4.00889294c10.02223237 0 18.04001705 8.01778589 18.04001706 18.04001705v390.86703927h-40.08892705V97.07960426c0-10.02223237 8.01778589-18.04001705 18.04001705-18.04001705z m-190.42240406 150.33347701H309.55091831c6.01333942 0 10.02223237 2.00444647 12.02667763 4.00889174 2.00444647 2.00444647 6.01333942 6.01333942 6.01333942 12.02667885l24.05335647 240.53356225c-16.03557057-4.00889295-30.06669588-10.02223237-42.09337352-20.04446352L287.50200832 251.42197422c0-12.02667762 6.01333942-20.04446352 16.03557057-22.04891z m54.12005115 256.56913284h-4.00889174 4.00889174z m-48.10671173-20.04446352c-2.00444647-2.00444647-6.01333942-4.00889295-8.01778588-8.01778469l8.01778588 8.01778469z m-14.03112531-14.0311241l-4.00889173-4.00889295 4.00889173 4.00889295z m-26.05780173-50.11115941c0-2.00444647-2.00444647-4.00889295-2.00444647-6.01333821 2.00444647 2.00444647 2.00444647 4.00889295 2.00444647 6.01333821z m-4.00889294-12.02667762c0-2.00444647-2.00444647-4.00889295-4.00889295-6.01333943 2.00444647 2.00444647 4.00889295 4.00889295 4.00889295 6.01333943z m-6.01333943-10.02223238c-2.00444647-2.00444647-4.00889295-4.00889295-4.00889295-6.01333821 2.00444647 2.00444647 4.00889295 4.00889295 4.00889295 6.01333821z m-6.01333941-10.02223116l-8.01778468-8.01778588c2.00444647 2.00444647 4.00889295 6.01333942 8.01778468 8.01778588z m-10.02223116-8.01778588c-2.00444647-2.00444647-6.01333942-4.00889295-10.02223237-6.01333821 4.00889295 2.00444647 8.01778589 4.00889295 10.02223237 6.01333821z m-12.02667762-8.01778469c-2.00444647-2.00444647-4.00889295-2.00444647-8.0177859-4.00889295 2.00444647 2.00444647 6.01333942 2.00444647 8.0177859 4.00889295zM820.68473871 912.88927164c-2.00444647 18.04001705-18.04001705 32.07114115-38.08448057 32.07114115h-541.20051628c-18.04001705 0-34.07558762-14.03112411-36.08003409-32.07114115l-62.13783704-489.08491162h52.11560466c18.04001705 84.18674703 94.20897819 144.32013759 178.39572643 144.32013759H652.31124465c48.10671294 0 94.20897819-20.04446352 130.28901349-54.12005114 24.05335647-24.05335647 42.09337351-56.12449761 50.11115941-90.20008645h52.11560467L820.68473871 912.88927164z" p-id="5475"></path><path d="M514.00444647 864.7825587h-40.08892704c-12.02667762 0-20.04446352 8.01778589-20.04446353 20.04446352s8.01778589 20.04446352 20.04446353 20.04446353h40.08892704c12.02667762 0 20.04446352-8.01778589 20.04446352-20.04446353s-8.01778589-20.04446352-20.04446352-20.04446352zM393.73766534 864.7825587h-88.19563997c-10.02223237 0-18.04001705-8.01778589-20.04446352-18.04001705l-6.01333942-42.09337351c-2.00444647-10.02223237-12.02667762-18.04001705-22.04890999-16.03557058-10.02223237 2.00444647-18.04001705 12.02667762-16.03557058 22.04890999l6.01333942 42.09337353c4.00889295 30.06669588 30.06669588 52.11560467 60.13339056 52.11560467h88.19563998c12.02667762 0 20.04446352-8.01778589 20.04446352-20.04446353s-10.02223237-20.04446352-22.04891-20.04446352z" p-id="5476"></path></svg>