<?xml version="1.0" standalone="no"?><!DOCTYPE svg PUBLIC "-//W3C//DTD SVG 1.1//EN" "http://www.w3.org/Graphics/SVG/1.1/DTD/svg11.dtd"><svg t="1612714325390" class="icon" viewBox="0 0 1024 1024" version="1.1" xmlns="http://www.w3.org/2000/svg" p-id="5329" xmlns:xlink="http://www.w3.org/1999/xlink" width="200" height="200"><defs><style type="text/css"></style></defs><path d="M908.88037869 79.03958721c22.04890999 0 40.08892704-18.04001705 40.08892705-40.08892704s-18.04001705-40.08892704-40.08892705-40.08892704h-168.37349406c-38.08448057 0-72.16006941 28.06224942-78.17340762 64.14228351l-22.04890999 112.24899523H389.72877241c-22.04890999-76.16896114-92.20453293-130.28901349-172.38238702-130.28901228-100.2223176 0-180.40017169 80.17785409-180.40017169 180.4001717 0 86.1911935 58.1289441 156.34681522 138.30679817 174.38683226l2.00444648 28.06224942 20.04446352 388.8625928 4.00889295 90.20008644c2.00444647 20.04446352 6.01333942 38.08448057 16.03557057 52.11560468 0 0 0 2.00444647 2.00444647 2.00444647 0 2.00444647 2.00444647 2.00444647 2.00444648 4.00889295 12.02667762 18.04001705 28.06224942 32.07114115 46.10226646 42.09337351 4.00889295 2.00444647 6.01333942 4.00889295 10.02223115 4.00889295 14.03112411 6.01333942 30.06669588 8.01778589 46.10226647 8.01778589H772.57802578c20.04446352 0 38.08448057-4.00889295 56.12449883-14.03112531 36.0800341-20.04446352 62.13783703-56.12449761 64.14228351-100.2223176L916.89816337 491.95553648l12.02667884-228.50688463c2.00444647-22.04890999-6.01333942-44.09781999-22.04891-60.13339056-16.03557057-16.03557057-36.0800341-26.05780294-58.12894408-26.05780294h-126.28012056l20.04446353-98.21787114h166.36904759z m-719.59624151 124.27567408c-16.03557057 16.03557057-24.05335647 38.08448057-22.04890999 60.13339056l2.00444647 54.12005115c-32.07114115-18.04001705-52.11560467-50.11115941-52.11560587-88.19563878 0-56.12449761 44.09781999-100.2223176 100.2223176-100.22231881 36.0800341 0 68.15117646 20.04446352 86.1911935 50.11115941h-56.12449761c-22.04890999-2.00444647-44.09781999 8.01778589-58.1289441 24.05335647z m58.1289441 54.12005115h376.83591517l-34.07558884 172.38238701c-34.07558762-10.02223237-70.15562293-20.04446352-106.23565703-26.05780295-70.15562293-12.02667762-146.32458407-8.01778589-228.50688463 8.0177859l-8.01778467-154.34236996zM812.66695282 904.87148575c0 14.03112411-8.01778589 26.05780294-20.04446353 32.07114114-6.01333942 4.00889295-14.03112411 6.01333942-22.04890878 6.01333942H321.57759594c-22.04890999 0-40.08892704-16.03557057-40.08892704-38.08448056l-2.00444647-46.10226648-20.04446353-366.81368279c78.17340761-16.03557057 146.32458407-20.04446352 210.46686759-8.0177859 50.11115941 8.01778589 98.21787114 24.05335647 148.32903053 40.08892704 34.07558762 12.02667762 72.16006941 24.05335647 108.2401035 32.07114237 36.0800341 10.02223237 70.15562293 14.03112411 104.23121056 16.03557057L812.66695282 904.87148575z m36.08003531-647.43617331l-12.02667885 236.52467051c-28.06224942-2.00444647-56.12449761-6.01333942-88.19563876-14.0311241-28.06224942-6.01333942-54.12005115-16.03557057-82.18230056-24.05335646l40.08892704-198.44018995h142.31569113z" p-id="5330"></path><path d="M451.86660944 862.77811222h-72.16006941c-10.02223237 0-20.04446352-8.01778589-20.04446352-20.04446352l-4.00889173-62.13783703c0-12.02667762-10.02223237-20.04446352-22.04891-18.04001705-12.02667762 0-20.04446352 10.02223237-18.04001826 22.04891l4.00889295 62.13783703c2.00444647 32.07114115 28.06224942 58.1289441 60.13339056 58.1289441H451.86660944c12.02667762 0 20.04446352-8.01778589 20.04446352-20.04446353s-10.02223237-22.04890999-20.04446352-22.04891zM572.13339056 862.77811222h-40.08892704c-12.02667762 0-20.04446352 8.01778589-20.04446352 20.04446353s8.01778589 20.04446352 20.04446352 20.04446351h40.08892704c12.02667762 0 20.04446352-8.01778589 20.04446353-20.04446351s-8.01778589-20.04446352-20.04446353-20.04446353z" p-id="5331"></path></svg>