<?xml version="1.0" standalone="no"?><!DOCTYPE svg PUBLIC "-//W3C//DTD SVG 1.1//EN" "http://www.w3.org/Graphics/SVG/1.1/DTD/svg11.dtd"><svg t="1612714168461" class="icon" viewBox="0 0 1223 1024" version="1.1" xmlns="http://www.w3.org/2000/svg" p-id="2482" xmlns:xlink="http://www.w3.org/1999/xlink" width="238.8671875" height="200"><defs><style type="text/css"></style></defs><path d="M635.249778 489.073778a35.555556 35.555556 0 0 1 3.640889 70.940444l-3.640889 0.170667h-202.24a35.555556 35.555556 0 0 1-3.669334-70.912l3.640889-0.199111h202.268445zM635.249778 615.509333a35.555556 35.555556 0 0 1 3.640889 70.912l-3.640889 0.199111h-202.24a35.555556 35.555556 0 0 1-3.669334-70.940444l3.640889-0.170667h202.268445zM635.249778 792.490667a35.555556 35.555556 0 0 1 3.640889 70.940444l-3.640889 0.170667h-202.24a35.555556 35.555556 0 0 1-3.669334-70.912l3.640889-0.199111h202.268445zM1014.528 337.379556a35.555556 35.555556 0 0 1 3.612444 70.940444l-3.612444 0.170667H407.694222a35.555556 35.555556 0 0 1-3.612444-70.912l3.612444-0.199111h606.833778zM1014.528 185.685333a35.555556 35.555556 0 0 1 3.612444 70.912l-3.612444 0.199111H407.694222a35.555556 35.555556 0 0 1-3.612444-70.940444l3.612444-0.170667h606.833778z" p-id="2483"></path><path d="M1201.777778 21.333333v843.52c0 73.500444-56.519111 134.428444-127.601778 137.671111l-5.973333 0.142223H161.564444c-77.226667 0-140.060444-63.431111-143.246222-141.710223l-0.113778-6.229333V190.577778a35.555556 35.555556 0 0 1 70.912-3.612445l0.199112 3.640889v664.177778c0 40.846222 30.435556 74.126222 67.754666 76.629333l4.494222 0.142223h3.697778c37.916444 0 70.058667-31.800889 72.476445-71.936l0.142222-4.835556V21.333333H1201.777778z m-71.111111 71.111111H308.935111v762.311112c0 27.022222-7.111111 52.451556-19.626667 74.382222l-1.450666 2.417778h780.344889c32.512 0 60.074667-27.363556 62.293333-62.122667l0.170667-4.551111V92.444444z" p-id="2484"></path><path d="M167.509333 147.740444c18.403556 0 33.564444 13.994667 35.356445 31.943112l0.199111 3.612444v657.408a35.555556 35.555556 0 0 1-70.940445 3.612444l-0.170666-3.612444V183.296c0-19.626667 15.928889-35.555556 35.555555-35.555556zM1014.528 501.731556h-252.871111c-19.626667 0-35.555556 15.928889-35.555556 35.555555v278.129778c0 19.626667 15.928889 35.555556 35.555556 35.555555h252.871111c19.626667 0 35.555556-15.928889 35.555556-35.555555v-278.129778c0-19.626667-15.928889-35.555556-35.555556-35.555555z m-35.584 71.082666v207.018667h-181.731556v-207.018667h181.731556z" p-id="2485"></path></svg>