<?xml version="1.0" standalone="no"?><!DOCTYPE svg PUBLIC "-//W3C//DTD SVG 1.1//EN" "http://www.w3.org/Graphics/SVG/1.1/DTD/svg11.dtd"><svg t="1612714210742" class="icon" viewBox="0 0 1024 1024" version="1.1" xmlns="http://www.w3.org/2000/svg" p-id="3509" xmlns:xlink="http://www.w3.org/1999/xlink" width="200" height="200"><defs><style type="text/css"></style></defs><path d="M796.379429 4.047238H320.560762L117.394286 180.809143v742.546286a96.719238 96.719238 0 0 0 96.426666 96.597333h582.558477a96.719238 96.719238 0 0 0 96.426666-96.597333V100.62019A96.694857 96.694857 0 0 0 796.379429 4.047238zM178.322286 208.579048l165.010285-143.60381h453.046858c19.431619 0 35.474286 16.091429 35.474285 35.644952v822.735239c0 19.553524-16.042667 35.644952-35.474285 35.644952H213.820952c-19.431619 0-35.474286-16.091429-35.474285-35.644952L178.322286 208.579048z" p-id="3510"></path><path d="M391.192381 43.544381v237.714286H236.81219v-60.952381l93.403429-0.024381V43.544381zM666.965333 346.331429v163.449904h-60.952381v-163.449904z" p-id="3511"></path><path d="M720.749714 397.55581v60.95238h-168.569904v-60.95238zM415.305143 429.641143c10.313143-22.820571 41.74019-23.844571 53.955047-3.047619l1.536 2.974476 154.940953 339.919238a30.47619 30.47619 0 0 1-54.028191 28.062476l-1.438476-2.779428-127.122286-278.893715-126.171428 278.820572a30.47619 30.47619 0 0 1-37.424762 16.335238l-2.925714-1.121524a30.47619 30.47619 0 0 1-16.335238-37.424762l1.145904-2.925714 153.84381-339.919238z" p-id="3512"></path><path d="M543.695238 635.318857v60.952381H343.527619v-60.952381z" p-id="3513"></path></svg>