<?xml version="1.0" standalone="no"?><!DOCTYPE svg PUBLIC "-//W3C//DTD SVG 1.1//EN" "http://www.w3.org/Graphics/SVG/1.1/DTD/svg11.dtd"><svg t="1612714176634" class="icon" viewBox="0 0 1047 1024" version="1.1" xmlns="http://www.w3.org/2000/svg" p-id="2628" xmlns:xlink="http://www.w3.org/1999/xlink" width="204.4921875" height="200"><defs><style type="text/css"></style></defs><path d="M173.777455 592.360727l91.042909 91.019637-41.146182 41.146181L132.654545 633.506909zM254.464 511.674182l162.164364 162.164363-41.146182 41.12291-162.164364-162.164364zM335.127273 431.010909l91.042909 90.996364-41.122909 41.169454-91.042909-91.019636zM415.813818 350.347636l162.164364 162.117819-41.146182 41.146181-162.164364-162.141091zM496.477091 269.661091l91.066182 91.019636-41.146182 41.146182-91.042909-91.019636zM657.850182 108.311273l91.019636 91.019636-41.146182 41.146182-90.996363-91.019636zM577.163636 188.974545l162.164364 162.164364L698.181818 392.285091l-162.164363-162.164364z" p-id="2629"></path><path d="M33.349818 714.728727l293.794909 299.915637 690.967273-705.349819L724.317091 9.378909 33.349818 714.728727z m293.771637 216.785455l-212.317091-216.762182 609.512727-622.196364 212.363636 216.762182-609.559272 622.196364z" p-id="2630"></path></svg>