<?xml version="1.0" standalone="no"?><!DOCTYPE svg PUBLIC "-//W3C//DTD SVG 1.1//EN" "http://www.w3.org/Graphics/SVG/1.1/DTD/svg11.dtd"><svg t="1612714197915" class="icon" viewBox="0 0 1693 1024" version="1.1" xmlns="http://www.w3.org/2000/svg" p-id="3214" xmlns:xlink="http://www.w3.org/1999/xlink" width="330.6640625" height="200"><defs><style type="text/css"></style></defs><path d="M1396.499692 475.372308v495.143384h-98.461538l-0.039385-396.681846H385.851077v396.681846h-98.461539V475.372308z" p-id="3215"></path><path d="M727.670154 554.338462v208.068923h-98.461539v-208.068923zM876.307692 554.338462v208.068923h-98.461538v-208.068923zM1024.945231 554.338462v208.068923h-98.461539v-208.068923zM1203.278769 554.338462v208.068923h-98.461538v-208.068923zM549.336615 554.338462v208.068923h-98.461538v-208.068923z" p-id="3216"></path><path d="M1524.736 29.538462H159.153231C82.235077 29.538462 19.889231 93.065846 19.889231 170.535385v708.214153c0 77.430154 62.345846 140.996923 139.264 140.996924h1365.582769c76.918154 0 139.264-63.566769 139.264-140.996924V170.535385c0-77.469538-62.345846-140.996923-139.264-140.996923zM159.153231 128h1365.582769c22.134154 0 40.802462 19.022769 40.802462 42.535385v708.214153c0 23.473231-18.707692 42.535385-40.802462 42.535385H159.153231c-22.134154 0-40.802462-19.062154-40.802462-42.535385V170.535385c0-23.512615 18.668308-42.535385 40.802462-42.535385z" p-id="3217"></path><path d="M1228.366769 222.759385v98.461538h-118.941538v-98.461538zM1436.435692 222.759385v98.461538h-118.941538v-98.461538zM247.453538 178.176a78.966154 78.966154 0 1 0 0 157.892923 78.966154 78.966154 0 0 0 0-157.932308z m0 59.431385a19.495385 19.495385 0 1 1 0 38.990769 19.495385 19.495385 0 0 1 0-38.990769z" p-id="3218"></path></svg>