<?xml version="1.0" standalone="no"?><!DOCTYPE svg PUBLIC "-//W3C//DTD SVG 1.1//EN" "http://www.w3.org/Graphics/SVG/1.1/DTD/svg11.dtd"><svg t="1612714216574" class="icon" viewBox="0 0 1194 1024" version="1.1" xmlns="http://www.w3.org/2000/svg" p-id="3656" xmlns:xlink="http://www.w3.org/1999/xlink" width="233.203125" height="200"><defs><style type="text/css"></style></defs><path d="M1067.975111 4.408889c67.640889 0 123.164444 53.902222 126.264889 121.031111l0.142222 5.973333v320.682667c0 67.896889-53.560889 123.676444-120.462222 126.833778l-5.973333 0.113778h-8.789334v155.960888c0 31.857778-38.200889 47.104-60.188444 25.656889l-2.360889-2.56-153.344-179.057777H767.146667v-71.111112h92.501333c9.102222 0 17.777778 3.498667 24.32 9.642667l2.673778 2.787556 101.404444 118.442666v-95.288889c0-18.432 13.994667-33.564444 31.943111-35.384888l3.612445-0.199112h44.373333c28.899556 0 52.992-22.897778 55.125333-51.683555l0.170667-4.152889V131.413333c0-29.297778-22.812444-53.560889-51.2-55.722666l-4.096-0.142223h-477.297778c-28.899556 0-52.992 22.926222-55.125333 51.712l-0.170667 4.152889v71.025778h-71.111111V131.384889c0-67.868444 53.560889-123.704889 120.462222-126.862222l5.973334-0.113778h477.269333z" p-id="3657"></path><path d="M603.960889 237.937778H126.663111C57.059556 237.937778 0.284444 295.054222 0.284444 364.913778v320.654222l0.142223 5.973333c3.128889 67.128889 58.595556 121.031111 126.264889 121.031111l8.760888-0.028444v155.960889l0.170667 3.470222c2.759111 30.577778 41.699556 43.832889 62.407111 19.655111l153.315556-179.086222h252.615111c69.688889 0 126.407111-57.088 126.407111-126.976V364.913778c0-69.859556-56.746667-126.976-126.407111-126.976z m-477.297778 71.111111h477.297778c30.293333 0 55.296 25.173333 55.296 55.864889v320.654222c0 30.72-25.031111 55.893333-55.296 55.893333h-268.970667l-3.84 0.199111a35.555556 35.555556 0 0 0-23.153778 12.231112l-101.432888 118.414222v-95.288889c0-19.626667-15.928889-35.555556-35.555556-35.555556H126.691556c-30.293333 0-55.296-25.173333-55.296-55.893333V364.913778c0-30.72 25.031111-55.864889 55.296-55.864889z" p-id="3658"></path><path d="M245.646222 468.679111a45.909333 45.909333 0 1 0 0 91.818667 45.909333 45.909333 0 0 0 0-91.818667z m0 20.707556a25.201778 25.201778 0 1 1 0 50.403555 25.201778 25.201778 0 0 1 0-50.403555zM369.777778 468.679111a45.909333 45.909333 0 1 0 0 91.818667 45.909333 45.909333 0 0 0 0-91.818667z m0 20.707556a25.201778 25.201778 0 1 1 0 50.403555 25.201778 25.201778 0 0 1 0-50.403555zM493.909333 468.679111a45.909333 45.909333 0 1 0 0 91.818667 45.909333 45.909333 0 0 0 0-91.818667z m0 20.707556a25.201778 25.201778 0 1 1 0 50.403555 25.201778 25.201778 0 0 1 0-50.403555zM824.888889 261.831111a45.909333 45.909333 0 1 0 0 91.790222 45.909333 45.909333 0 0 0 0-91.790222z m0 20.679111a25.201778 25.201778 0 1 1 0 50.432 25.201778 25.201778 0 0 1 0-50.432zM949.020444 261.831111a45.909333 45.909333 0 1 0 0 91.790222 45.909333 45.909333 0 0 0 0-91.790222z m0 20.679111a25.201778 25.201778 0 1 1 0 50.432 25.201778 25.201778 0 0 1 0-50.432z" p-id="3659"></path></svg>