<?xml version="1.0" standalone="no"?><!DOCTYPE svg PUBLIC "-//W3C//DTD SVG 1.1//EN" "http://www.w3.org/Graphics/SVG/1.1/DTD/svg11.dtd"><svg t="1612714222836" class="icon" viewBox="0 0 1170 1024" version="1.1" xmlns="http://www.w3.org/2000/svg" p-id="3802" xmlns:xlink="http://www.w3.org/1999/xlink" width="228.515625" height="200"><defs><style type="text/css"></style></defs><path d="M1038.921143 107.988114a36.571429 36.571429 0 0 1 68.900571 24.283429l-1.2288 3.540114-198.100114 481.397029a36.571429 36.571429 0 0 1-56.378514 14.891885l-2.8672-2.516114-106.261943-102.721828-145.846857 144.091428a36.571429 36.571429 0 0 1-53.540572-2.282057l-2.399085-3.159771-99.5328-146.2272-142.336 231.306971a36.571429 36.571429 0 0 1-46.811429 13.897143l-3.510857-1.901714a36.571429 36.571429 0 0 1-13.867886-46.811429l1.901714-3.510857 171.944229-279.405714a36.571429 36.571429 0 0 1 58.894629-4.681143l2.486857 3.2768L576.950857 588.068571l140.0832-138.298514a36.571429 36.571429 0 0 1 48.157257-2.837943l2.954972 2.574629 93.184 90.053486 177.590857-431.542858z" p-id="3803"></path><path d="M158.485943 24.3712l-0.029257 865.514057H1170.285714v73.142857H85.343086V24.400457z" p-id="3804"></path><path d="M146.285714 219.428571V292.571429H24.3712V219.428571zM146.285714 487.6288v73.142857H24.3712v-73.142857zM146.285714 755.799771v73.142858H24.3712v-73.142858zM292.571429 902.085486V1024H219.428571v-121.914514zM536.3712 902.085486V1024h-73.142857v-121.914514zM780.200229 902.085486V1024h-73.142858v-121.914514zM1048.3712 902.085486V1024h-73.142857v-121.914514z" p-id="3805"></path></svg>